0
SECTION
2
HEADER
9
$INSUNITS
70
4
9
$ACADVER
1
AC1014
9
$HANDSEED
5
FFFF
0
ENDSEC
0
SECTION
2
TABLES
0
TABLE
2
VPORT
5
8
100
AcDbSymbolTable
0
ENDTAB
0
TABLE
2
LTYPE
5
5
100
AcDbSymbolTable
0
LTYPE
5
14
100
AcDbSymbolTableRecord
100
AcDbLinetypeTableRecord
2
BYBLOCK
70
0
0
LTYPE
5
15
100
AcDbSymbolTableRecord
100
AcDbLinetypeTableRecord
2
BYLAYER
70
0
0
ENDTAB
0
TABLE
2
LAYER
5
2
100
AcDbSymbolTable
70
2
0
LAYER
5
50
100
AcDbSymbolTableRecord
100
AcDbLayerTableRecord
2
0
70
0
6
CONTINUOUS
0
ENDTAB
0
TABLE
2
STYLE
5
3
100
AcDbSymbolTable
70
1
0
STYLE
5
11
100
AcDbSymbolTableRecord
100
AcDbTextStyleTableRecord
2
STANDARD
70
0
0
ENDTAB
0
TABLE
2
VIEW
5
6
100
AcDbSymbolTable
70
0
0
ENDTAB
0
TABLE
2
UCS
5
7
100
AcDbSymbolTable
70
0
0
ENDTAB
0
TABLE
2
APPID
5
9
100
AcDbSymbolTable
70
2
0
APPID
5
12
100
AcDbSymbolTableRecord
100
AcDbRegAppTableRecord
2
ACAD
70
0
0
ENDTAB
0
TABLE
2
DIMSTYLE
5
A
100
AcDbSymbolTable
70
1
0
ENDTAB
0
TABLE
2
BLOCK_RECORD
5
1
100
AcDbSymbolTable
70
1
0
BLOCK_RECORD
5
1F
100
AcDbSymbolTableRecord
100
AcDbBlockTableRecord
2
*MODEL_SPACE
0
BLOCK_RECORD
5
1B
100
AcDbSymbolTableRecord
100
AcDbBlockTableRecord
2
*PAPER_SPACE
0
ENDTAB
0
ENDSEC
0
SECTION
2
BLOCKS
0
BLOCK
5
20
100
AcDbEntity
100
AcDbBlockBegin
2
*MODEL_SPACE
0
ENDBLK
5
21
100
AcDbEntity
100
AcDbBlockEnd
0
BLOCK
5
1C
100
AcDbEntity
100
AcDbBlockBegin
2
*PAPER_SPACE
0
ENDBLK
5
1D
100
AcDbEntity
100
AcDbBlockEnd
0
ENDSEC
0
SECTION
2
ENTITIES
0
LWPOLYLINE
5
100
100
AcDbEntity
8
0
100
AcDbPolyline
90
8
70
1
43
0.0
10
-240.65000000000001
20
22.083629758250499
42
-0.41421356237305079
10
-241.15000000000003
20
21.583629758250499
10
-254.15000000000003
20
21.583629758250495
42
-0.41421356237313406
10
-254.65000000000003
20
22.083629758250499
10
-254.65000000000003
20
35.083629758250503
42
-0.41421356237313145
10
-254.15000000000003
20
35.583629758250503
10
-241.15000000000003
20
35.583629758250517
42
-0.41421356237310025
10
-240.65000000000001
20
35.083629758250503
0
LWPOLYLINE
5
101
100
AcDbEntity
8
0
100
AcDbPolyline
90
8
70
1
43
0.0
10
-256.53125
20
59.683629758250525
42
-0.41421356237310025
10
-257.03125
20
60.183629758250504
10
-257.03125
20
73.183629758250518
42
-0.4142135623730222
10
-256.53125
20
73.683629758250518
10
-243.53125000000003
20
73.683629758250518
42
-0.41421356237313667
10
-243.03125
20
73.183629758250518
10
-243.03124999999997
20
60.183629758250504
42
-0.41421356237307422
10
-243.53125000000003
20
59.683629758250511
0
LWPOLYLINE
5
102
100
AcDbEntity
8
0
100
AcDbPolyline
90
8
70
1
43
0.0
10
-5.9932500000000033
20
61.183629758250504
10
-5.9932500000000033
20
75.183629758250518
42
0.41421356237309437
10
-6.4932500000000015
20
75.683629758250504
10
-12.49325
20
75.683629758250518
42
0.41421356237309503
10
-12.993250000000005
20
75.183629758250518
10
-12.99325
20
61.183629758250504
42
0.41421356237309764
10
-12.493249999999998
20
60.683629758250504
10
-6.4932500000000006
20
60.683629758250504
42
0.4142135623730957
0
LWPOLYLINE
5
103
100
AcDbEntity
8
0
100
AcDbPolyline
90
8
70
1
43
0.0
10
-111.27500000000001
20
2.5336297582504907
42
-0.41421356237309437
10
-111.77500000000002
20
3.0336297582504956
10
-111.77500000000003
20
16.033629758250498
42
-0.41421356237310414
10
-111.27500000000001
20
16.533629758250498
10
-98.275000000000006
20
16.533629758250509
42
-0.41421356237309631
10
-97.775000000000006
20
16.033629758250498
10
-97.774999999999977
20
3.0336297582505001
42
-0.41421356237310736
10
-98.275000000000006
20
2.533629758250497
0
LWPOLYLINE
5
104
100
AcDbEntity
8
0
100
AcDbPolyline
90
8
70
1
43
0.0
10
-258.86250000000001
20
22.083629758250499
42
-0.41421356237305079
10
-259.36250000000001
20
21.583629758250499
10
-260.36250000000001
20
21.583629758250478
42
-0.41421356237310281
10
-260.86250000000001
20
22.083629758250499
10
-260.86250000000001
20
35.083629758250503
42
-0.41421356237304563
10
-260.36250000000001
20
35.583629758250495
10
-259.36250000000001
20
35.583629758250474
42
-0.41421356237309764
10
-258.86250000000007
20
35.083629758250503
0
LWPOLYLINE
5
105
100
AcDbEntity
8
0
100
AcDbPolyline
90
8
70
1
43
0.0
10
-137.46875000000003
20
78.733629758250487
42
-0.414213562373069
10
-137.96875000000003
20
79.233629758250501
10
-137.96875
20
92.23362975825053
42
-0.41421356237309503
10
-137.46875
20
92.733629758250515
10
-124.46875
20
92.733629758250515
42
-0.41421356237309503
10
-123.96875000000001
20
92.23362975825053
10
-123.96875000000001
20
79.233629758250501
42
-0.41421356237310542
10
-124.46875
20
78.733629758250501
0
LWPOLYLINE
5
106
100
AcDbEntity
8
0
100
AcDbPolyline
90
8
70
1
43
0.0
10
-54.912500000000009
20
41.133629758250493
42
-0.41421356237309503
10
-55.412500000000009
20
40.6336297582505
10
-68.412499999999994
20
40.6336297582505
42
-0.41421356237309503
10
-68.912499999999994
20
41.133629758250493
10
-68.912499999999994
20
54.133629758250521
42
-0.41421356237309503
10
-68.412499999999994
20
54.633629758250521
10
-55.412500000000009
20
54.633629758250521
42
-0.41421356237309503
10
-54.912500000000009
20
54.133629758250521
0
LWPOLYLINE
5
107
100
AcDbEntity
8
0
100
AcDbPolyline
90
8
70
1
43
0.0
10
-88.25
20
22.083629758250499
10
-88.25
20
35.083629758250503
42
0.41421356237309243
10
-88.75
20
35.583629758250503
10
-101.75
20
35.583629758250495
42
0.41421356237310542
10
-102.25000000000001
20
35.083629758250503
10
-102.25000000000001
20
22.083629758250499
42
0.41421356237309503
10
-101.75
20
21.583629758250499
10
-88.75
20
21.583629758250499
42
0.41421356237310802
0
LWPOLYLINE
5
108
100
AcDbEntity
8
0
100
AcDbPolyline
90
20
70
1
43
0.0
10
-250.17500000000001
20
3.0336297582504965
42
-0.41421356237304624
10
-250.67500000000001
20
2.533629758250497
10
-282.72500000000002
20
2.5336297582504788
42
-0.41421356237310153
10
-283.22500000000002
20
3.0336297582504956
10
-283.22500000000002
20
16.033629758250498
42
-0.41421356237304563
10
-282.72500000000002
20
16.533629758250498
10
-282.13799999999998
20
16.533629758250498
10
-282.13800000000003
20
18.033629758250502
42
-0.41421356237307683
10
-281.63799999999998
20
18.533629758250502
10
-275.63800000000003
20
18.533629758250484
42
-0.41421356237312362
10
-275.13799999999998
20
18.033629758250498
10
-275.13799999999998
20
16.533629758250498
10
-258.26200000000006
20
16.533629758250498
10
-258.26200000000006
20
18.033629758250502
42
-0.41421356237304563
10
-257.76200000000006
20
18.533629758250502
10
-251.762
20
18.533629758250484
42
-0.41421356237312362
10
-251.262
20
18.033629758250498
10
-251.262
20
16.533629758250498
10
-250.67500000000001
20
16.533629758250484
42
-0.41421356237312362
10
-250.17500000000001
20
16.033629758250498
0
LWPOLYLINE
5
109
100
AcDbEntity
8
0
100
AcDbPolyline
90
8
70
1
43
0.0
10
-27.268750000000004
20
41.133629758250493
10
-27.268750000000001
20
54.133629758250521
42
0.41421356237308204
10
-27.768750000000004
20
54.633629758250521
10
-28.768750000000001
20
54.633629758250521
42
0.41421356237309764
10
-29.268749999999997
20
54.133629758250521
10
-29.268749999999997
20
41.133629758250493
42
0.41421356237309764
10
-28.768750000000001
20
40.633629758250507
10
-27.768750000000004
20
40.6336297582505
42
0.41421356237309764
0
LWPOLYLINE
5
110
100
AcDbEntity
8
0
100
AcDbPolyline
90
8
70
1
43
0.0
10
-159.6875
20
60.183629758250504
42
-0.41421356237309503
10
-160.1875
20
59.683629758250511
10
-173.1875
20
59.683629758250518
42
-0.41421356237312623
10
-173.68750000000003
20
60.183629758250504
10
-173.6875
20
73.183629758250518
42
-0.4142135623730222
10
-173.1875
20
73.683629758250518
10
-160.1875
20
73.683629758250532
42
-0.41421356237310025
10
-159.6875
20
73.183629758250518
0
LWPOLYLINE
5
111
100
AcDbEntity
8
0
100
AcDbPolyline
90
8
70
1
43
0.0
10
-52.531250000000007
20
79.233629758250501
42
-0.41421356237309503
10
-53.031250000000007
20
78.733629758250501
10
-66.03125
20
78.733629758250501
42
-0.41421356237310542
10
-66.53125
20
79.233629758250501
10
-66.53125
20
92.23362975825053
42
-0.41421356237309503
10
-66.03125
20
92.733629758250515
10
-53.031250000000007
20
92.733629758250515
42
-0.41421356237310025
10
-52.531250000000007
20
92.23362975825053
0
LWPOLYLINE
5
112
100
AcDbEntity
8
0
100
AcDbPolyline
90
8
70
1
43
0.0
10
-173.97499999999997
20
3.0336297582504965
42
-0.41421356237307749
10
-174.47500000000002
20
2.533629758250497
10
-187.47499999999999
20
2.5336297582504965
42
-0.41421356237313273
10
-187.97499999999999
20
3.0336297582504956
10
-187.97500000000002
20
16.033629758250498
42
-0.41421356237307683
10
-187.47499999999999
20
16.533629758250498
10
-174.47500000000002
20
16.533629758250502
42
-0.41421356237313406
10
-173.97500000000002
20
16.033629758250498
0
LWPOLYLINE
5
113
100
AcDbEntity
8
0
100
AcDbPolyline
90
8
70
1
43
0.0
10
-183.5
20
22.083629758250499
42
-0.41421356237308204
10
-184.00000000000003
20
21.583629758250499
10
-197.00000000000003
20
21.583629758250524
42
-0.41421356237309764
10
-197.5
20
22.083629758250499
10
-197.50000000000006
20
35.083629758250503
42
-0.41421356237312101
10
-197.00000000000003
20
35.583629758250503
10
-184.00000000000003
20
35.583629758250495
42
-0.41421356237313145
10
-183.5
20
35.083629758250503
0
LWPOLYLINE
5
114
100
AcDbEntity
8
0
100
AcDbPolyline
90
8
70
1
43
0.0
10
-219.21874999999997
20
79.233629758250501
42
-0.41421356237307422
10
-219.71875
20
78.733629758250501
10
-232.71875
20
78.733629758250515
42
-0.41421356237312623
10
-233.21875000000003
20
79.233629758250501
10
-233.21875000000006
20
92.23362975825053
42
-0.4142135623730846
10
-232.71875
20
92.73362975825053
10
-219.71875
20
92.73362975825053
42
-0.41421356237309503
10
-219.21875
20
92.23362975825053
0
LWPOLYLINE
5
115
100
AcDbEntity
8
0
100
AcDbPolyline
90
8
70
1
43
0.0
10
-135.08750000000003
20
59.68362975825049
42
-0.414213562373069
10
-135.58750000000001
20
60.183629758250504
10
-135.58750000000001
20
73.183629758250518
42
-0.41421356237310542
10
-135.08750000000001
20
73.683629758250518
10
-122.08750000000002
20
73.683629758250532
42
-0.41421356237310025
10
-121.58750000000001
20
73.183629758250518
10
-121.58750000000001
20
60.183629758250504
42
-0.41421356237310542
10
-122.08750000000002
20
59.683629758250511
0
LWPOLYLINE
5
116
100
AcDbEntity
8
0
100
AcDbPolyline
90
8
70
1
43
0.0
10
-269.22500000000008
20
79.233629758250501
42
-0.4142135623730222
10
-269.72500000000002
20
78.733629758250501
10
-282.72500000000002
20
78.733629758250487
42
-0.41421356237313667
10
-283.22500000000002
20
79.233629758250501
10
-283.22500000000002
20
92.23362975825053
42
-0.41421356237307422
10
-282.72500000000002
20
92.733629758250515
10
-269.72500000000002
20
92.733629758250515
42
-0.4142135623730846
10
-269.22500000000002
20
92.23362975825053
0
LWPOLYLINE
5
117
100
AcDbEntity
8
0
100
AcDbPolyline
90
8
70
1
43
0.0
10
-40.625
20
3.0336297582504965
42
-0.41421356237309404
10
-41.125
20
2.533629758250497
10
-54.125000000000007
20
2.5336297582504996
42
-0.41421356237309437
10
-54.625
20
3.0336297582504956
10
-54.625
20
16.033629758250498
42
-0.4142135623730937
10
-54.125000000000007
20
16.533629758250498
10
-41.125
20
16.533629758250498
42
-0.41421356237309503
10
-40.625
20
16.033629758250498
0
LWPOLYLINE
5
118
100
AcDbEntity
8
0
100
AcDbPolyline
90
8
70
1
43
0.0
10
-257.31874999999997
20
41.133629758250493
42
-0.41421356237307422
10
-257.81875000000002
20
40.6336297582505
10
-270.81875000000002
20
40.633629758250507
42
-0.41421356237312623
10
-271.31875000000002
20
41.133629758250493
10
-271.31875000000002
20
54.133629758250521
42
-0.4142135623730222
10
-270.81875000000002
20
54.633629758250521
10
-257.81875000000002
20
54.633629758250528
42
-0.41421356237313667
10
-257.31875000000002
20
54.133629758250521
0
LWPOLYLINE
5
119
100
AcDbEntity
8
0
100
AcDbPolyline
90
8
70
1
43
0.0
10
-193.02499999999998
20
3.0336297582504965
42
-0.41421356237307749
10
-193.52500000000003
20
2.533629758250497
10
-206.52500000000003
20
2.5336297582505232
42
-0.41421356237309631
10
-207.02500000000001
20
3.0336297582504956
10
-207.02500000000003
20
16.033629758250498
42
-0.41421356237304563
10
-206.52500000000003
20
16.533629758250498
10
-193.52500000000003
20
16.533629758250502
42
-0.41421356237313406
10
-193.02500000000003
20
16.033629758250498
0
LWPOLYLINE
5
120
100
AcDbEntity
8
0
100
AcDbPolyline
90
8
70
1
43
0.0
10
-45.387500000000003
20
60.183629758250504
42
-0.41421356237309503
10
-45.887500000000003
20
59.683629758250511
10
-58.88750000000001
20
59.683629758250511
42
-0.41421356237309503
10
-59.387500000000003
20
60.183629758250504
10
-59.387500000000003
20
73.183629758250518
42
-0.41421356237309503
10
-58.88750000000001
20
73.683629758250518
10
-45.887500000000003
20
73.683629758250518
42
-0.41421356237309503
10
-45.387500000000003
20
73.183629758250518
0
LWPOLYLINE
5
121
100
AcDbEntity
8
0
100
AcDbPolyline
90
8
70
1
43
0.0
10
-84.46875
20
91.23362975825053
42
-0.41421356237307422
10
-83.96875
20
91.733629758250544
10
-77.96875
20
91.733629758250544
42
-0.41421356237310542
10
-77.46875
20
91.23362975825053
10
-77.468749999999986
20
77.233629758250515
42
-0.41421356237311063
10
-77.96875
20
76.733629758250515
10
-83.96875
20
76.733629758250515
42
-0.41421356237307422
10
-84.46875
20
77.233629758250515
0
LWPOLYLINE
5
122
100
AcDbEntity
8
0
100
AcDbPolyline
90
8
70
1
43
0.0
10
-4.9062500000000151
20
41.133629758250493
42
-0.41421356237309892
10
-5.4062500000000036
20
40.633629758250514
10
-23.168750000000003
20
40.633629758250507
42
-0.41421356237309503
10
-23.668749999999999
20
41.133629758250493
10
-23.668750000000003
20
54.133629758250521
42
-0.41421356237309764
10
-23.168749999999999
20
54.633629758250521
10
-5.4062500000000036
20
54.633629758250521
42
-0.41421356237310025
10
-4.90625
20
54.133629758250521
0
LWPOLYLINE
5
123
100
AcDbEntity
8
0
100
AcDbPolyline
90
8
70
1
43
0.0
10
-192.23750000000001
20
59.683629758250518
42
-0.41421356237312623
10
-192.73750000000004
20
60.183629758250504
10
-192.73750000000001
20
73.183629758250518
42
-0.4142135623730222
10
-192.23750000000001
20
73.683629758250518
10
-179.23750000000001
20
73.683629758250518
42
-0.41421356237313667
10
-178.73750000000001
20
73.183629758250518
10
-178.73749999999998
20
60.183629758250504
42
-0.41421356237307422
10
-179.23750000000001
20
59.683629758250511
0
LWPOLYLINE
5
124
100
AcDbEntity
8
0
100
AcDbPolyline
90
40
70
1
43
0.0
10
-152.42245551737381
20
84.410236198250516
42
-0.036910999999981833
10
-152.43925647737379
20
84.141249718250464
42
-0.0084160000000114872
10
-152.50884183737381
20
83.689991758250528
42
-0.11452099999999128
10
-153.5332505173738
20
81.252630358250514
42
-0.1191469999999934
10
-155.51466363737379
20
79.557476518250525
42
-0.1192480000000037
10
-158.05014939737379
20
78.9553945182505
42
-0.11484999999999963
10
-160.61925243737377
20
79.564878358250525
42
-0.11869600000000442
10
-162.68062947737377
20
81.293817838250519
42
-0.12024400000000544
10
-163.71682623737382
20
83.763528358250525
42
-0.12056499999999454
10
-163.49772879737378
20
86.427683038250507
42
-0.11974799999999593
10
-162.07353063737378
20
88.697361238250551
42
-0.030211999999995316
10
-161.51435835737379
20
89.179583518250496
42
-0.031847000000015106
10
-160.91054019737382
20
89.58174467825053
42
-0.032289000000000019
10
-160.26873891737384
20
89.8991926782505
42
-0.03303199999999859
10
-159.59620383737382
20
90.128606398250511
42
-0.012008000000039836
10
-159.0618407173738
20
90.258629758250507
42
-0.044760000000022546
10
-158.71880295737381
20
90.301807438250535
42
-0.076736999999921507
10
-158.48341407737382
20
90.274039438250512
42
-0.12941599999995371
10
-158.31275955737382
20
90.174508558250494
42
-0.1076990000001312
10
-158.20268151737378
20
90.00308363825053
42
-0.16044399999997111
10
-158.1959515573738
20
89.826433318250523
42
-0.086730999999986694
10
-158.30509767737379
20
89.602276318250546
42
-0.017462999999977042
10
-158.57846475737378
20
89.250830638250505
42
0.040523000000000281
10
-158.96997159737379
20
88.696592998250537
42
0.057107000000001303
10
-159.21637215737383
20
88.144699318250559
42
0.055276000000001879
10
-159.33651159737377
20
87.537641518250524
42
0.035055000000001613
10
-159.34723779737379
20
86.815878958250536
42
0.033271000000001646
10
-159.25972035737379
20
86.10053399825054
42
0.054924999999999544
10
-159.08114799737382
20
85.519132438250537
42
0.056556000000002458
10
-158.78474703737379
20
85.002327718250527
42
0.037771000000001984
10
-158.3400779173738
20
84.484172638250513
42
0.096456999999999779
10
-157.27680075737379
20
83.76646067825051
42
0.095094999999998986
10
-156.0164898373738
20
83.495447518250529
42
0.094653000000002263
10
-154.74050859737378
20
83.709953398250548
42
0.094532999999998674
10
-153.63278667737376
20
84.379695238250491
42
-0.017715000000007409
10
-153.20384415737377
20
84.738709198250532
42
-0.089560999999940327
10
-152.92848063737378
20
84.883051918250572
42
-0.17663099999995949
10
-152.71629231737376
20
84.873392998250537
42
-0.12132200000003029
10
-152.52069363737377
20
84.728789638250532
42
-0.10508600000007835
10
-152.44843683737381
20
84.591115318250473
42
-0.065720999999936303
0
LWPOLYLINE
5
125
100
AcDbEntity
8
0
100
AcDbPolyline
90
8
70
1
43
0.0
10
-24.887500000000003
20
22.083629758250499
42
-0.41421356237309503
10
-25.387500000000003
20
21.583629758250499
10
-26.387499999999999
20
21.583629758250492
42
-0.41421356237310281
10
-26.887500000000003
20
22.083629758250499
10
-26.887499999999996
20
35.083629758250503
42
-0.41421356237309503
10
-26.387499999999999
20
35.583629758250495
10
-25.387500000000003
20
35.583629758250503
42
-0.41421356237310025
10
-24.887499999999999
20
35.083629758250503
0
LWPOLYLINE
5
126
100
AcDbEntity
8
0
100
AcDbPolyline
90
8
70
1
43
0.0
10
-145.40000000000003
20
22.083629758250499
42
-0.4142135623730846
10
-145.90000000000001
20
21.583629758250499
10
-158.90000000000001
20
21.583629758250492
42
-0.41421356237309503
10
-159.40000000000001
20
22.083629758250499
10
-159.40000000000001
20
35.083629758250503
42
-0.41421356237310542
10
-158.90000000000001
20
35.583629758250495
10
-145.90000000000003
20
35.583629758250503
42
-0.41421356237308204
10
-145.40000000000001
20
35.083629758250503
0
LWPOLYLINE
5
127
100
AcDbEntity
8
0
100
AcDbPolyline
90
8
70
1
43
0.0
10
-29.869249999999997
20
61.183629758250504
42
-0.41421356237309764
10
-30.369250000000001
20
60.683629758250504
10
-36.369250000000001
20
60.683629758250518
42
-0.41421356237309764
10
-36.869250000000001
20
61.183629758250504
10
-36.869250000000001
20
75.183629758250518
42
-0.41421356237309503
10
-36.369250000000001
20
75.683629758250518
10
-30.369250000000001
20
75.683629758250518
42
-0.41421356237309503
10
-29.869250000000001
20
75.183629758250518
0
LWPOLYLINE
5
128
100
AcDbEntity
8
0
100
AcDbPolyline
90
8
70
1
43
0.0
10
-126.34999999999999
20
22.083629758250499
10
-126.34999999999999
20
35.083629758250503
42
0.41421356237307161
10
-126.85000000000001
20
35.583629758250503
10
-139.84999999999999
20
35.583629758250495
42
0.41421356237310542
10
-140.34999999999999
20
35.083629758250503
10
-140.34999999999999
20
22.083629758250499
42
0.41421356237309503
10
-139.84999999999999
20
21.583629758250499
10
-126.85000000000001
20
21.583629758250499
42
0.4142135623730846
0
LWPOLYLINE
5
129
100
AcDbEntity
8
0
100
AcDbPolyline
90
8
70
1
43
0.0
10
-207.31250000000003
20
41.133629758250493
42
-0.4142135623730222
10
-207.8125
20
40.6336297582505
10
-220.8125
20
40.633629758250493
42
-0.41421356237313667
10
-221.3125
20
41.133629758250493
10
-221.31250000000006
20
54.133629758250521
42
-0.41421356237307422
10
-220.8125
20
54.633629758250521
10
-207.8125
20
54.6336297582505
42
-0.41421356237310025
10
-207.31250000000003
20
54.133629758250521
0
LWPOLYLINE
5
130
100
AcDbEntity
8
0
100
AcDbPolyline
90
8
70
1
43
0.0
10
-14.431250000000002
20
60.183629758250504
10
-14.431250000000002
20
73.183629758250518
42
0.41421356237309764
10
-14.93125
20
73.683629758250518
10
-27.931249999999999
20
73.683629758250518
42
0.41421356237309764
10
-28.431249999999999
20
73.183629758250518
10
-28.431249999999999
20
60.183629758250504
42
0.41421356237309764
10
-27.931249999999999
20
59.683629758250511
10
-14.93125
20
59.683629758250511
42
0.41421356237309764
0
LWPOLYLINE
5
131
100
AcDbEntity
8
0
100
AcDbPolyline
90
8
70
1
43
0.0
10
-96.987500000000011
20
59.68362975825049
42
-0.41421356237310025
10
-97.487500000000011
20
60.183629758250504
10
-97.487500000000011
20
73.183629758250518
42
-0.41421356237310542
10
-96.987500000000011
20
73.683629758250518
10
-83.987499999999997
20
73.68362975825049
42
-0.41421356237311063
10
-83.487500000000011
20
73.183629758250518
10
-83.487499999999983
20
60.183629758250504
42
-0.41421356237310542
10
-83.987499999999997
20
59.683629758250511
0
LWPOLYLINE
5
132
100
AcDbEntity
8
0
100
AcDbPolyline
90
8
70
1
43
0.0
10
-262.13125000000002
20
59.683629758250525
42
-0.41421356237310025
10
-262.63125000000002
20
60.183629758250504
10
-262.63125000000002
20
73.183629758250518
42
-0.4142135623730222
10
-262.13125000000002
20
73.683629758250518
10
-261.13125000000002
20
73.683629758250504
42
-0.41421356237312623
10
-260.63125000000002
20
73.183629758250518
10
-260.63125000000008
20
60.183629758250504
42
-0.4142135623730222
10
-261.13125000000002
20
59.683629758250511
0
LWPOLYLINE
5
133
100
AcDbEntity
8
0
100
AcDbPolyline
90
8
70
1
43
0.0
10
-195.40625000000003
20
79.233629758250501
10
-195.40625000000003
20
92.23362975825053
42
0.4142135623730846
10
-195.90625000000003
20
92.733629758250501
10
-208.90625
20
92.733629758250515
42
0.41421356237304302
10
-209.40625
20
92.23362975825053
10
-209.40625
20
79.233629758250501
42
0.41421356237312623
10
-208.90625
20
78.733629758250501
10
-195.90625000000003
20
78.733629758250501
42
0.4142135623730222
0
LWPOLYLINE
5
134
100
AcDbEntity
8
0
100
AcDbPolyline
90
8
70
1
43
0.0
10
-212.07499999999999
20
3.0336297582504965
42
-0.41421356237304624
10
-212.57499999999999
20
2.533629758250497
10
-225.57500000000002
20
2.5336297582504965
42
-0.41421356237313273
10
-226.07500000000002
20
3.0336297582504956
10
-226.07500000000005
20
16.033629758250498
42
-0.41421356237307683
10
-225.57500000000002
20
16.533629758250498
10
-212.57499999999999
20
16.533629758250484
42
-0.41421356237312362
10
-212.07499999999999
20
16.033629758250498
0
LWPOLYLINE
5
135
100
AcDbEntity
8
0
100
AcDbPolyline
90
8
70
1
43
0.0
10
-164.44999999999999
20
22.083629758250499
10
-164.44999999999999
20
35.083629758250503
42
0.41421356237313145
10
-164.95000000000002
20
35.58362975825051
10
-177.94999999999999
20
35.583629758250503
42
0.41421356237313145
10
-178.44999999999999
20
35.083629758250503
10
-178.44999999999999
20
22.083629758250499
42
0.41421356237313406
10
-177.94999999999999
20
21.583629758250499
10
-164.95000000000002
20
21.583629758250499
42
0.41421356237308204
0
LWPOLYLINE
5
136
100
AcDbEntity
8
0
100
AcDbPolyline
90
8
70
1
43
0.0
10
-197.78750000000002
20
60.183629758250504
42
-0.4142135623730222
10
-198.28749999999999
20
59.683629758250511
10
-211.28749999999999
20
59.683629758250504
42
-0.41421356237313667
10
-211.78750000000002
20
60.183629758250504
10
-211.78750000000005
20
73.183629758250518
42
-0.41421356237307422
10
-211.28749999999999
20
73.683629758250518
10
-198.28749999999999
20
73.683629758250504
42
-0.41421356237312623
10
-197.78749999999999
20
73.183629758250518
0
LWPOLYLINE
5
137
100
AcDbEntity
8
0
100
AcDbPolyline
90
8
70
1
43
0.0
10
-231.125
20
3.0336297582504965
42
-0.41421356237304624
10
-231.625
20
2.533629758250497
10
-244.62500000000003
20
2.5336297582504965
42
-0.41421356237313273
10
-245.12500000000003
20
3.0336297582504956
10
-245.12500000000006
20
16.033629758250498
42
-0.41421356237307683
10
-244.62500000000003
20
16.533629758250498
10
-231.625
20
16.533629758250484
42
-0.41421356237312362
10
-231.125
20
16.033629758250498
0
LWPOLYLINE
5
138
100
AcDbEntity
8
0
100
AcDbPolyline
90
8
70
1
43
0.0
10
-42.21875
20
78.733629758250501
42
-0.41421356237309503
10
-42.71875
20
79.233629758250501
10
-42.71875
20
92.233629758250515
42
-0.41421356237310025
10
-42.21875
20
92.733629758250515
10
-29.21875
20
92.733629758250515
42
-0.41421356237310025
10
-28.71875
20
92.23362975825053
10
-28.718749999999996
20
79.233629758250501
42
-0.41421356237309764
10
-29.21875
20
78.733629758250501
0
LWPOLYLINE
5
139
100
AcDbEntity
8
0
100
AcDbPolyline
90
8
70
1
43
0.0
10
-154.13749999999999
20
59.68362975825049
42
-0.41421356237310025
10
-154.63750000000002
20
60.183629758250504
10
-154.63750000000002
20
73.183629758250518
42
-0.41421356237310542
10
-154.13749999999999
20
73.683629758250518
10
-141.13749999999999
20
73.683629758250532
42
-0.41421356237310025
10
-140.63749999999999
20
73.183629758250518
10
-140.63749999999999
20
60.183629758250504
42
-0.41421356237310542
10
-141.13749999999999
20
59.683629758250511
0
LWPOLYLINE
5
140
100
AcDbEntity
8
0
100
AcDbPolyline
90
8
70
1
43
0.0
10
-1.6875000000000016
20
22.083629758250499
42
-0.41421356237309553
10
-2.1875000000000004
20
21.583629758250499
10
-3.1875000000000053
20
21.583629758250499
42
-0.41421356237309309
10
-3.6875
20
22.083629758250499
10
-3.6875
20
35.083629758250503
42
-0.4142135623730957
10
-3.1875000000000009
20
35.583629758250495
10
-2.1875
20
35.583629758250495
42
-0.41421356237309503
10
-1.6875000000000007
20
35.083629758250503
0
LWPOLYLINE
5
141
100
AcDbEntity
8
0
100
AcDbPolyline
90
8
70
1
43
0.0
10
-73.962500000000006
20
41.133629758250493
42
-0.41421356237310542
10
-74.462500000000006
20
40.6336297582505
10
-87.46250000000002
20
40.633629758250507
42
-0.41421356237309503
10
-87.962500000000006
20
41.133629758250493
10
-87.962500000000006
20
54.133629758250521
42
-0.41421356237310542
10
-87.46250000000002
20
54.633629758250521
10
-74.462500000000006
20
54.633629758250521
42
-0.41421356237310542
10
-73.962500000000006
20
54.133629758250521
0
LWPOLYLINE
5
142
100
AcDbEntity
8
0
100
AcDbPolyline
90
40
70
1
43
0.0
10
-102.05812523737382
20
82.398145318250499
42
-0.035055000000001439
10
-102.06885143737381
20
81.676382758250526
42
-0.055275999999999194
10
-102.18899087737384
20
81.069324958250519
42
-0.057107000000002274
10
-102.43539143737382
20
80.517431278250513
42
-0.040523000000001183
10
-102.82689827737383
20
79.96319363825053
42
0.017462999999996894
10
-103.10026535737381
20
79.611747958250504
42
0.086730999999951527
10
-103.20941147737383
20
79.387590958250499
42
0.1604439999999242
10
-103.20268151737382
20
79.21094063825052
42
0.10769899999996899
10
-103.09260347737381
20
79.039515718250499
42
0.12941600000008438
10
-102.92194895737383
20
78.939984838250496
42
0.076736999999956076
10
-102.68656007737383
20
78.912216838250501
42
0.044760000000002041
10
-102.34352231737381
20
78.955394518250529
42
0.012007999999989498
10
-101.80915919737382
20
79.08541787825051
42
0.033032000000002171
10
-101.13662411737381
20
79.314831598250507
42
0.032288999999985094
10
-100.49482283737382
20
79.63227959825052
42
0.031847000000014919
10
-99.891004677373843
20
80.034440758250511
42
0.030211999999988668
10
-99.331832397373816
20
80.516663038250499
42
0.1197480000000011
10
-97.907634237373827
20
82.786341238250543
42
0.12056499999999976
10
-97.688536797373828
20
85.450495918250539
42
0.12024400000000093
10
-98.724733557373824
20
87.920206438250517
42
0.11869600000000456
10
-100.78611059737383
20
89.649145918250511
42
0.11484999999999737
10
-103.35521363737382
20
90.258629758250507
42
0.11924799999999197
10
-105.89069939737384
20
89.656547758250511
42
0.11914699999999594
10
-107.87211251737382
20
87.961393918250508
42
0.11452099999999639
10
-108.89652119737383
20
85.524032518250536
42
0.0084160000000131022
10
-108.96610655737382
20
85.072774558250529
42
0.036910999999983859
10
-108.98290751737383
20
84.803788078250506
42
0.065720999999912544
10
-108.95692619737383
20
84.62290895825052
42
0.1050860000000145
10
-108.88466939737381
20
84.485234638250517
42
0.12132200000004628
10
-108.68907071737382
20
84.340631278250527
42
0.17663100000002427
10
-108.47688239737381
20
84.33097235825052
42
0.089561000000143776
10
-108.20151887737381
20
84.475315078250503
42
0.017715000000021967
10
-107.77257635737382
20
84.834329038250502
42
-0.094533000000000547
10
-106.66485443737383
20
85.504070878250531
42
-0.094652999999999876
10
-105.38887319737383
20
85.718576758250506
42
-0.095094999999999971
10
-104.12856227737382
20
85.447563598250525
42
-0.096457000000001736
10
-103.06528511737383
20
84.729851638250494
42
-0.037771000000001574
10
-102.62061599737379
20
84.211696558250509
42
-0.056555999999998954
10
-102.32421503737382
20
83.694891838250498
42
-0.05492499999999844
10
-102.14564267737384
20
83.113490278250524
42
-0.033271000000002444
0
LWPOLYLINE
5
143
100
AcDbEntity
8
0
100
AcDbPolyline
90
8
70
1
43
0.0
10
-221.59999999999999
20
22.083629758250499
42
-0.41421356237305079
10
-222.10000000000002
20
21.583629758250499
10
-235.10000000000002
20
21.583629758250495
42
-0.41421356237313406
10
-235.60000000000002
20
22.083629758250499
10
-235.60000000000005
20
35.083629758250503
42
-0.41421356237307683
10
-235.10000000000002
20
35.583629758250495
10
-222.10000000000002
20
35.583629758250517
42
-0.41421356237310025
10
-221.59999999999999
20
35.083629758250503
0
LWPOLYLINE
5
144
100
AcDbEntity
8
0
100
AcDbPolyline
90
8
70
1
43
0.0
10
-112.0625
20
41.133629758250493
42
-0.41421356237310542
10
-112.56250000000001
20
40.6336297582505
10
-125.56249999999999
20
40.633629758250478
42
-0.41421356237307944
10
-126.06250000000001
20
41.133629758250493
10
-126.0625
20
54.133629758250521
42
-0.41421356237310542
10
-125.5625
20
54.633629758250521
10
-112.56250000000001
20
54.633629758250535
42
-0.41421356237310025
10
-112.0625
20
54.133629758250521
0
LWPOLYLINE
5
145
100
AcDbEntity
8
0
100
AcDbPolyline
90
8
70
1
43
0.0
10
-59.675000000000004
20
3.0336297582504965
42
-0.41421356237309664
10
-60.174999999999997
20
2.533629758250497
10
-73.174999999999997
20
2.5336297582504996
42
-0.41421356237309437
10
-73.674999999999997
20
3.0336297582504956
10
-73.674999999999997
20
16.033629758250498
42
-0.41421356237309503
10
-73.174999999999997
20
16.533629758250498
10
-60.174999999999997
20
16.533629758250502
42
-0.41421356237309764
10
-59.675000000000004
20
16.033629758250498
0
LWPOLYLINE
5
146
100
AcDbEntity
8
0
100
AcDbPolyline
90
8
70
1
43
0.0
10
-272.75675000000007
20
42.133629758250507
42
-0.4142135623730222
10
-273.25675000000001
20
41.633629758250514
10
-279.25675000000001
20
41.633629758250507
42
-0.41421356237313667
10
-279.75675000000001
20
42.133629758250507
10
-279.75675000000007
20
56.133629758250514
42
-0.41421356237307422
10
-279.25675000000001
20
56.633629758250514
10
-273.25675000000001
20
56.633629758250507
42
-0.41421356237312623
10
-272.75675000000001
20
56.133629758250514
0
LWPOLYLINE
5
147
100
AcDbEntity
8
0
100
AcDbPolyline
90
8
70
1
43
0.0
10
-130.32499999999999
20
2.5336297582504907
42
-0.41421356237309437
10
-130.82499999999999
20
3.0336297582504956
10
-130.82499999999999
20
16.033629758250498
42
-0.41421356237310675
10
-130.32499999999999
20
16.533629758250498
10
-117.32500000000002
20
16.533629758250509
42
-0.41421356237309631
10
-116.82500000000002
20
16.033629758250498
10
-116.82499999999999
20
3.0336297582505001
42
-0.41421356237310736
10
-117.32500000000002
20
2.533629758250497
0
LWPOLYLINE
5
148
100
AcDbEntity
8
0
100
AcDbPolyline
90
8
70
1
43
0.0
10
-7.2874999999999996
20
22.083629758250495
42
-0.4142135623730937
10
-7.7875000000000005
20
21.583629758250499
10
-20.787500000000001
20
21.583629758250499
42
-0.41421356237309503
10
-21.287500000000001
20
22.083629758250499
10
-21.287500000000001
20
35.083629758250503
42
-0.41421356237309503
10
-20.787500000000001
20
35.583629758250495
10
-7.7874999999999961
20
35.583629758250495
42
-0.41421356237309243
10
-7.2874999999999996
20
35.083629758250503
0
LWPOLYLINE
5
149
100
AcDbEntity
8
0
100
AcDbPolyline
90
8
70
1
43
0.0
10
-177.96875
20
91.733629758250558
42
-0.41421356237310542
10
-177.46875
20
91.23362975825053
10
-177.46875000000003
20
77.233629758250515
42
-0.4142135623730222
10
-177.96875
20
76.733629758250515
10
-183.96875
20
76.733629758250544
42
-0.41421356237312101
10
-184.46875000000003
20
77.233629758250515
10
-184.46875
20
91.23362975825053
42
-0.41421356237310542
10
-183.96875
20
91.733629758250544
0
LWPOLYLINE
5
150
100
AcDbEntity
8
0
100
AcDbPolyline
90
8
70
1
43
0.0
10
-154.92500000000001
20
3.0336297582504965
42
-0.41421356237307422
10
-155.42500000000001
20
2.533629758250497
10
-168.42500000000001
20
2.5336297582504788
42
-0.41421356237310153
10
-168.92500000000001
20
3.0336297582504956
10
-168.92500000000001
20
16.033629758250498
42
-0.41421356237304691
10
-168.42500000000001
20
16.533629758250498
10
-155.42500000000004
20
16.533629758250509
42
-0.41421356237308593
10
-154.92500000000001
20
16.033629758250498
0
LWPOLYLINE
5
151
100
AcDbEntity
8
0
100
AcDbPolyline
90
8
70
1
43
0.0
10
-226.36250000000004
20
41.133629758250493
42
-0.4142135623730222
10
-226.86250000000001
20
40.6336297582505
10
-239.86250000000001
20
40.633629758250493
42
-0.41421356237313667
10
-240.36250000000001
20
41.133629758250493
10
-240.36250000000007
20
54.133629758250521
42
-0.41421356237307422
10
-239.86250000000001
20
54.633629758250521
10
-226.86250000000001
20
54.633629758250507
42
-0.41421356237312623
10
-226.36250000000001
20
54.133629758250521
0
LWPOLYLINE
5
152
100
AcDbEntity
8
0
100
AcDbPolyline
90
8
70
1
43
0.0
10
-50.150000000000006
20
22.083629758250499
42
-0.41421356237309503
10
-50.650000000000006
20
21.583629758250499
10
-63.650000000000006
20
21.583629758250495
42
-0.41421356237310281
10
-64.150000000000006
20
22.083629758250499
10
-64.150000000000006
20
35.083629758250503
42
-0.41421356237308204
10
-63.650000000000006
20
35.583629758250503
10
-50.650000000000006
20
35.583629758250495
42
-0.41421356237309503
10
-50.150000000000006
20
35.083629758250503
0
LWPOLYLINE
5
153
100
AcDbEntity
8
0
100
AcDbPolyline
90
8
70
1
43
0.0
10
-31.100000000000001
20
22.083629758250499
42
-0.41421356237309503
10
-31.600000000000001
20
21.583629758250499
10
-44.599999999999994
20
21.583629758250488
42
-0.41421356237309764
10
-45.100000000000009
20
22.083629758250499
10
-45.100000000000009
20
35.083629758250503
42
-0.41421356237308204
10
-44.600000000000001
20
35.583629758250503
10
-31.600000000000001
20
35.583629758250495
42
-0.41421356237309503
10
-31.100000000000001
20
35.083629758250503
0
LWPOLYLINE
5
154
100
AcDbEntity
8
0
100
AcDbPolyline
90
8
70
1
43
0.0
10
-288.27499999999998
20
60.183629758250504
42
-0.4142135623730222
10
-288.77499999999998
20
59.683629758250511
10
-301.77499999999998
20
59.683629758250504
42
-0.41421356237313667
10
-302.27499999999998
20
60.183629758250504
10
-302.27500000000003
20
73.183629758250518
42
-0.41421356237307422
10
-301.77499999999998
20
73.683629758250518
10
-288.77499999999998
20
73.68362975825049
42
-0.41421356237310025
10
-288.27499999999998
20
73.183629758250518
0
LWPOLYLINE
5
155
100
AcDbEntity
8
0
100
AcDbPolyline
90
8
70
1
43
0.0
10
-35.075000000000003
20
2.5336297582504921
42
-0.41421356237309631
10
-35.575000000000003
20
3.0336297582504956
10
-35.575000000000003
20
16.033629758250498
42
-0.41421356237309631
10
-35.075000000000003
20
16.533629758250498
10
-22.075000000000003
20
16.533629758250498
42
-0.41421356237309892
10
-21.575000000000003
20
16.033629758250498
10
-21.575000000000003
20
3.0336297582505001
42
-0.41421356237309731
10
-22.074999999999999
20
2.533629758250497
0
LWPOLYLINE
5
156
100
AcDbEntity
8
0
100
AcDbPolyline
90
8
70
1
43
0.0
10
-264.46249999999998
20
22.083629758250499
10
-264.46249999999998
20
35.083629758250503
42
0.41421356237313145
10
-264.96249999999998
20
35.58362975825051
10
-277.96249999999998
20
35.583629758250503
42
0.41421356237312101
10
-278.46250000000003
20
35.083629758250503
10
-278.46249999999998
20
22.083629758250499
42
0.41421356237309764
10
-277.96249999999998
20
21.583629758250499
10
-264.96249999999998
20
21.583629758250499
42
0.41421356237308204
0
LWPOLYLINE
5
157
100
AcDbEntity
8
0
100
AcDbPolyline
90
8
70
1
43
0.0
10
-2.5249999999999999
20
3.0336297582504965
42
-0.41421356237309437
10
-3.0249999999999999
20
2.533629758250497
10
-16.024999999999999
20
2.5336297582504974
42
-0.4142135623730957
10
-16.524999999999999
20
3.0336297582504956
10
-16.524999999999999
20
16.033629758250498
42
-0.41421356237309764
10
-16.024999999999999
20
16.533629758250498
10
-3.0250000000000021
20
16.533629758250498
42
-0.41421356237309598
10
-2.5249999999999999
20
16.033629758250498
0
LWPOLYLINE
5
158
100
AcDbEntity
8
0
100
AcDbPolyline
90
8
70
1
43
0.0
10
-144.61250000000004
20
40.633629758250478
42
-0.414213562373069
10
-145.11250000000001
20
41.133629758250493
10
-145.11250000000001
20
54.133629758250521
42
-0.41421356237310542
10
-144.61250000000001
20
54.633629758250521
10
-131.61250000000001
20
54.633629758250535
42
-0.41421356237310025
10
-131.11250000000001
20
54.133629758250521
10
-131.11250000000001
20
41.133629758250493
42
-0.41421356237310542
10
-131.61250000000001
20
40.6336297582505
0
LWPOLYLINE
5
159
100
AcDbEntity
8
0
100
AcDbPolyline
90
8
70
1
43
0.0
10
-216.83750000000003
20
60.183629758250504
42
-0.4142135623730222
10
-217.33750000000001
20
59.683629758250511
10
-230.33750000000001
20
59.683629758250504
42
-0.41421356237313667
10
-230.83750000000003
20
60.183629758250504
10
-230.83750000000006
20
73.183629758250518
42
-0.41421356237307422
10
-230.33750000000001
20
73.683629758250518
10
-217.33750000000001
20
73.68362975825049
42
-0.41421356237310025
10
-216.83750000000003
20
73.183629758250518
0
LWPOLYLINE
5
160
100
AcDbEntity
8
0
100
AcDbPolyline
90
8
70
1
43
0.0
10
-282.0625
20
22.083629758250499
42
-0.41421356237305079
10
-282.5625
20
21.583629758250499
10
-283.5625
20
21.583629758250478
42
-0.41421356237310281
10
-284.06250000000006
20
22.083629758250499
10
-284.06250000000006
20
35.083629758250503
42
-0.41421356237304563
10
-283.5625
20
35.583629758250495
10
-282.5625
20
35.583629758250517
42
-0.41421356237310025
10
-282.0625
20
35.083629758250503
0
LWPOLYLINE
5
161
100
AcDbEntity
8
0
100
AcDbPolyline
90
8
70
1
43
0.0
10
-18.40625
20
78.733629758250501
42
-0.41421356237309631
10
-18.906250000000004
20
79.233629758250501
10
-18.906249999999996
20
92.23362975825053
42
-0.41421356237309892
10
-18.40625
20
92.733629758250515
10
-5.4062500000000036
20
92.73362975825053
42
-0.41421356237307616
10
-4.90625
20
92.23362975825053
10
-4.9062500000000009
20
79.233629758250501
42
-0.4142135623730957
10
-5.4062499999999991
20
78.733629758250501
0
LWPOLYLINE
5
162
100
AcDbEntity
8
0
100
AcDbPolyline
90
8
70
1
43
0.0
10
-288.27499999999998
20
41.133629758250493
42
-0.4142135623730222
10
-288.77499999999998
20
40.6336297582505
10
-301.77499999999998
20
40.633629758250493
42
-0.41421356237313667
10
-302.27499999999998
20
41.133629758250493
10
-302.27500000000003
20
54.133629758250521
42
-0.41421356237307422
10
-301.77499999999998
20
54.633629758250521
10
-288.77499999999998
20
54.6336297582505
42
-0.41421356237310025
10
-288.27499999999998
20
54.133629758250521
0
LWPOLYLINE
5
163
100
AcDbEntity
8
0
100
AcDbPolyline
90
8
70
1
43
0.0
10
-288.27499999999998
20
79.233629758250501
42
-0.4142135623730222
10
-288.77499999999998
20
78.733629758250501
10
-301.77499999999998
20
78.733629758250487
42
-0.41421356237313667
10
-302.27499999999998
20
79.233629758250501
10
-302.27499999999998
20
92.23362975825053
42
-0.41421356237309503
10
-301.77499999999998
20
92.73362975825053
10
-288.77499999999998
20
92.733629758250515
42
-0.4142135623730846
10
-288.27499999999998
20
92.23362975825053
0
LWPOLYLINE
5
164
100
AcDbEntity
8
0
100
AcDbPolyline
90
8
70
1
43
0.0
10
-78.724999999999994
20
3.0336297582504965
42
-0.41421356237309664
10
-79.224999999999994
20
2.533629758250497
10
-92.224999999999994
20
2.5336297582504907
42
-0.41421356237309437
10
-92.725000000000009
20
3.0336297582504956
10
-92.725000000000023
20
16.033629758250498
42
-0.41421356237310414
10
-92.224999999999994
20
16.533629758250498
10
-79.224999999999994
20
16.533629758250502
42
-0.41421356237309764
10
-78.724999999999994
20
16.033629758250498
0
LWPOLYLINE
5
165
100
AcDbEntity
8
0
100
AcDbPolyline
90
8
70
1
43
0.0
10
-248.88074999999998
20
42.133629758250507
42
-0.41421356237307422
10
-249.38075000000001
20
41.633629758250514
10
-255.38075000000003
20
41.633629758250507
42
-0.41421356237313667
10
-255.88075000000003
20
42.133629758250507
10
-255.88075000000006
20
56.133629758250514
42
-0.41421356237307422
10
-255.38075000000003
20
56.633629758250514
10
-249.38075000000001
20
56.633629758250521
42
-0.41421356237313667
10
-248.88075000000001
20
56.133629758250514
0
LWPOLYLINE
5
166
100
AcDbEntity
8
0
100
AcDbPolyline
90
8
70
1
43
0.0
10
-250.17500000000007
20
79.233629758250501
42
-0.4142135623730222
10
-250.67500000000001
20
78.733629758250501
10
-263.67500000000001
20
78.733629758250487
42
-0.41421356237313667
10
-264.17500000000007
20
79.233629758250501
10
-264.17500000000007
20
92.23362975825053
42
-0.41421356237307422
10
-263.67500000000001
20
92.733629758250515
10
-250.67500000000001
20
92.733629758250515
42
-0.4142135623730846
10
-250.17500000000001
20
92.23362975825053
0
LWPOLYLINE
5
167
100
AcDbEntity
8
0
100
AcDbPolyline
90
8
70
1
43
0.0
10
-269.22500000000008
20
60.183629758250504
42
-0.4142135623730222
10
-269.72500000000002
20
59.683629758250511
10
-282.72500000000002
20
59.683629758250504
42
-0.41421356237313667
10
-283.22500000000002
20
60.183629758250504
10
-283.22500000000008
20
73.183629758250518
42
-0.41421356237307422
10
-282.72500000000002
20
73.683629758250518
10
-269.72500000000002
20
73.683629758250504
42
-0.41421356237312623
10
-269.22500000000002
20
73.183629758250518
0
LWPOLYLINE
5
168
100
AcDbEntity
8
0
100
AcDbPolyline
90
8
70
1
43
0.0
10
-93.012499999999989
20
41.133629758250493
42
-0.41421356237310542
10
-93.512500000000003
20
40.6336297582505
10
-106.51250000000002
20
40.633629758250478
42
-0.41421356237310025
10
-107.01250000000002
20
41.133629758250493
10
-107.01250000000002
20
54.133629758250521
42
-0.41421356237310542
10
-106.51250000000002
20
54.633629758250521
10
-93.512500000000003
20
54.633629758250535
42
-0.41421356237310025
10
-93.012499999999989
20
54.133629758250521
0
LWPOLYLINE
5
169
100
AcDbEntity
8
0
100
AcDbPolyline
90
8
70
1
43
0.0
10
-35.862499999999997
20
41.133629758250493
42
-0.41421356237309764
10
-36.362499999999997
20
40.6336297582505
10
-49.362500000000004
20
40.6336297582505
42
-0.41421356237309503
10
-49.862499999999997
20
41.133629758250493
10
-49.862499999999997
20
54.133629758250521
42
-0.41421356237309503
10
-49.362500000000004
20
54.633629758250521
10
-36.362499999999997
20
54.633629758250507
42
-0.41421356237309764
10
-35.862500000000004
20
54.133629758250521
0
LWPOLYLINE
5
170
100
AcDbEntity
8
0
100
AcDbPolyline
90
8
70
1
43
0.0
10
-116.03750000000002
20
59.68362975825049
42
-0.414213562373069
10
-116.53750000000001
20
60.183629758250504
10
-116.53749999999999
20
73.183629758250518
42
-0.41421356237310542
10
-116.03749999999999
20
73.683629758250518
10
-103.03750000000001
20
73.683629758250532
42
-0.41421356237310025
10
-102.53749999999999
20
73.183629758250518
10
-102.53749999999999
20
60.183629758250504
42
-0.41421356237310542
10
-103.03750000000001
20
59.683629758250511
0
LWPOLYLINE
5
171
100
AcDbEntity
8
0
100
AcDbPolyline
90
8
70
1
43
0.0
10
-288.27499999999998
20
22.083629758250499
42
-0.41421356237305079
10
-288.77499999999998
20
21.583629758250499
10
-301.77499999999998
20
21.583629758250495
42
-0.41421356237313406
10
-302.27499999999998
20
22.083629758250499
10
-302.27500000000003
20
35.083629758250503
42
-0.41421356237307683
10
-301.77499999999998
20
35.583629758250495
10
-288.77499999999998
20
35.583629758250474
42
-0.41421356237309764
10
-288.27499999999998
20
35.083629758250503
0
LWPOLYLINE
5
172
100
AcDbEntity
8
0
100
AcDbPolyline
90
8
70
1
43
0.0
10
-135.875
20
3.0336297582505001
10
-135.875
20
16.033629758250498
42
0.41421356237307555
10
-136.375
20
16.533629758250498
10
-149.375
20
16.533629758250498
42
0.41421356237310675
10
-149.875
20
16.033629758250498
10
-149.875
20
3.0336297582504965
42
0.41421356237309437
10
-149.375
20
2.533629758250501
10
-136.375
20
2.533629758250497
42
0.41421356237307616
0
LWPOLYLINE
5
173
100
AcDbEntity
8
0
100
AcDbPolyline
90
8
70
1
43
0.0
10
-238.93125000000001
20
59.683629758250504
42
-0.41421356237313667
10
-239.43125000000003
20
60.183629758250504
10
-239.43125000000006
20
73.183629758250518
42
-0.41421356237307422
10
-238.93125000000001
20
73.683629758250518
10
-237.93125000000003
20
73.683629758250504
42
-0.41421356237312623
10
-237.43125000000003
20
73.183629758250518
10
-237.43125000000006
20
60.183629758250504
42
-0.4142135623730222
10
-237.93125000000003
20
59.683629758250511
0
LWPOLYLINE
5
174
100
AcDbEntity
8
0
100
AcDbPolyline
90
8
70
1
43
0.0
10
-69.200000000000017
20
22.083629758250499
42
-0.41421356237309764
10
-69.700000000000003
20
21.583629758250499
10
-82.700000000000017
20
21.583629758250492
42
-0.41421356237307422
10
-83.200000000000017
20
22.083629758250499
10
-83.200000000000003
20
35.083629758250503
42
-0.41421356237310025
10
-82.700000000000017
20
35.583629758250495
10
-69.700000000000003
20
35.583629758250503
42
-0.41421356237309764
10
-69.200000000000003
20
35.083629758250503
0
LWPOLYLINE
5
175
100
AcDbEntity
8
0
100
AcDbPolyline
90
8
70
1
43
0.0
10
-163.66250000000002
20
40.633629758250507
42
-0.41421356237312623
10
-164.16250000000002
20
41.133629758250493
10
-164.16249999999997
20
54.133629758250521
42
-0.4142135623730222
10
-163.66250000000002
20
54.633629758250521
10
-150.66249999999999
20
54.633629758250535
42
-0.41421356237310025
10
-150.16249999999999
20
54.133629758250521
10
-150.16249999999999
20
41.133629758250493
42
-0.41421356237310542
10
-150.66249999999999
20
40.6336297582505
0
LWPOLYLINE
5
176
100
AcDbEntity
8
0
100
AcDbPolyline
90
8
70
1
43
0.0
10
-107.30000000000001
20
22.083629758250499
42
-0.41421356237310802
10
-107.80000000000001
20
21.583629758250499
10
-120.8
20
21.583629758250492
42
-0.41421356237307422
10
-121.30000000000001
20
22.083629758250499
10
-121.29999999999998
20
35.083629758250503
42
-0.41421356237310025
10
-120.8
20
35.583629758250495
10
-107.80000000000001
20
35.583629758250503
42
-0.41421356237309243
10
-107.30000000000001
20
35.083629758250503
0
LWPOLYLINE
5
177
100
AcDbEntity
8
0
100
AcDbPolyline
90
8
70
1
43
0.0
10
-188.26250000000002
20
41.133629758250493
42
-0.4142135623730222
10
-188.76249999999999
20
40.6336297582505
10
-201.76249999999999
20
40.633629758250493
42
-0.41421356237313667
10
-202.26249999999999
20
41.133629758250493
10
-202.26250000000005
20
54.133629758250521
42
-0.41421356237307422
10
-201.76249999999999
20
54.633629758250521
10
-188.76249999999999
20
54.633629758250507
42
-0.41421356237312623
10
-188.26249999999999
20
54.133629758250521
0
LWPOLYLINE
5
178
100
AcDbEntity
8
0
100
AcDbPolyline
90
8
70
1
43
0.0
10
-169.21249999999998
20
41.133629758250493
42
-0.41421356237307422
10
-169.71250000000001
20
40.6336297582505
10
-182.71250000000003
20
40.633629758250507
42
-0.41421356237312623
10
-183.21250000000003
20
41.133629758250493
10
-183.21249999999998
20
54.133629758250521
42
-0.4142135623730222
10
-182.71250000000003
20
54.633629758250521
10
-169.71250000000001
20
54.633629758250528
42
-0.41421356237313667
10
-169.21250000000001
20
54.133629758250521
0
LWPOLYLINE
5
179
100
AcDbEntity
8
0
100
AcDbPolyline
90
8
70
1
43
0.0
10
-202.55000000000001
20
22.083629758250499
42
-0.41421356237308204
10
-203.05000000000004
20
21.583629758250499
10
-216.05000000000004
20
21.583629758250478
42
-0.41421356237310281
10
-216.55000000000004
20
22.083629758250499
10
-216.55000000000004
20
35.083629758250503
42
-0.41421356237304563
10
-216.05000000000004
20
35.583629758250495
10
-203.05000000000004
20
35.583629758250495
42
-0.41421356237313145
10
-202.55000000000001
20
35.083629758250503
0
LWPOLYLINE
5
180
100
AcDbEntity
8
0
100
AcDbPolyline
90
8
70
1
43
0.0
10
-64.4375
20
60.183629758250504
42
-0.41421356237310542
10
-64.9375
20
59.683629758250511
10
-77.9375
20
59.683629758250511
42
-0.41421356237309503
10
-78.4375
20
60.183629758250504
10
-78.4375
20
73.183629758250518
42
-0.41421356237309503
10
-77.9375
20
73.683629758250518
10
-64.9375
20
73.683629758250518
42
-0.41421356237310542
10
-64.4375
20
73.183629758250518
0
LWPOLYLINE
5
181
100
AcDbEntity
8
0
100
AcDbPolyline
90
68
70
1
43
0.0
10
-303.25
20
18.583629758250485
42
-0.41421356237309587
10
-304.80000000000007
20
20.1336297582505
10
-304.80000000000007
20
93.70862975825051
42
-0.41421356237310508
10
-303.25
20
95.258629758250521
10
-244.76891979697399
20
95.258629758250521
42
0.24469844322903023
10
-244.35934377482951
20
95.471841540075019
10
-241.17439626597348
20
100.02041797642602
42
-0.24469844322900525
10
-240.76482024382895
20
100.23362975825052
10
-239.625
20
100.23362975825053
42
-0.41421356237310542
10
-239.12499999999997
20
99.733629758250515
10
-239.12499999999997
20
98.233629758250515
42
0.99999999999999989
10
-237.125
20
98.233629758250515
10
-237.12499999999991
20
99.733629758250515
42
-0.41421356237310542
10
-236.62499999999994
20
100.23362975825052
10
-235.48517975617096
20
100.23362975825049
42
-0.24469844322896017
10
-235.07560373402646
20
100.02041797642602
10
-231.8906562251704
20
95.471841540074976
42
0.24469844322901477
10
-231.48108020302595
20
95.258629758250521
10
-73.318919796973972
20
95.258629758250521
42
0.24469844322903561
10
-72.909343774829466
20
95.471841540075019
10
-69.724396265973439
20
100.02041797642605
42
-0.24469844322906678
10
-69.314820243828919
20
100.23362975825052
10
-68.17499999999994
20
100.23362975825052
42
-0.41421356237308982
10
-67.674999999999955
20
99.733629758250515
10
-67.674999999999955
20
98.233629758250515
42
0.99999999999999989
10
-65.674999999999955
20
98.233629758250515
10
-65.674999999999898
20
99.733629758250515
42
-0.41421356237310542
10
-65.174999999999912
20
100.23362975825052
10
-64.035179756170947
20
100.23362975825052
42
-0.24469844322905102
10
-63.625603734026448
20
100.02041797642603
10
-60.4406562251704
20
95.471841540075019
42
0.24469844322903561
10
-60.031080203025908
20
95.258629758250521
10
-1.5500000000000012
20
95.258629758250521
42
-0.4142135623731022
10
0
20
93.708629758250538
10
7.2164496600635175e-15
20
1.558629758250498
42
-0.4142135623730952
10
-1.5499999999999936
20
0.0086297582504965553
10
-60.031080203025894
20
0.0086297582504966941
42
0.24469844322903236
10
-60.440656225170386
20
-0.20458202357397592
10
-63.625603734026448
20
-4.7531584599250332
42
-0.24469844322903903
10
-64.035179756170947
20
-4.966370241749507
10
-65.174999999999926
20
-4.9663702417495053
42
-0.41421356237309342
10
-65.674999999999926
20
-4.4663702417495097
10
-65.67499999999994
20
-2.9663702417495053
42
0.99999999999999989
10
-67.674999999999926
20
-2.9663702417495053
10
-67.67499999999994
20
-4.4663702417495053
42
-0.41421356237309664
10
-68.17499999999994
20
-4.966370241749507
10
-69.314820243828919
20
-4.9663702417495035
42
-0.24469844322903925
10
-69.724396265973411
20
-4.7531584599250305
10
-72.909343774829495
20
-0.20458202357397995
42
0.24469844322903397
10
-73.318919796974001
20
0.0086297582504965553
10
-231.4810802030259
20
0.0086297582504966941
42
0.24469844322903536
10
-231.8906562251704
20
-0.20458202357397037
10
-235.07560373402652
20
-4.7531584599250554
42
-0.24469844322901477
10
-235.48517975617099
20
-4.966370241749507
10
-236.62499999999991
20
-4.9663702417494937
42
-0.41421356237307294
10
-237.12499999999991
20
-4.4663702417495248
10
-237.125
20
-2.9663702417495053
42
0.99999999999999989
10
-239.12499999999997
20
-2.9663702417495053
10
-239.12499999999997
20
-4.4663702417495053
42
-0.41421356237304624
10
-239.625
20
-4.966370241749507
10
-240.76482024382895
20
-4.9663702417494875
42
-0.24469844322902032
10
-241.17439626597343
20
-4.7531584599250332
10
-244.35934377482951
20
-0.20458202357396682
42
0.2446984432290229
10
-244.76891979697399
20
0.0086297582504965553
10
-284.67500000000001
20
0.0086297582504832326
42
-0.41421356237309614
10
-286.22500000000002
20
1.5586297582505004
10
-286.22500000000002
20
17.033629758250498
42
0.41421356237309503
10
-287.77500000000003
20
18.583629758250495
0
ENDSEC
0
SECTION
2
OBJECTS
0
DICTIONARY
5
C
100
AcDbDictionary
3
ACAD_GROUP
350
D
3
ACAD_MLINESTYLE
350
17
0
DICTIONARY
5
D
100
AcDbDictionary
0
DICTIONARY
5
1A
330
C
100
AcDbDictionary
0
DICTIONARY
5
17
100
AcDbDictionary
0
ENDSEC
0
EOF
