0
SECTION
2
HEADER
9
$INSUNITS
70
4
9
$ACADVER
1
AC1014
9
$HANDSEED
5
FFFF
0
ENDSEC
0
SECTION
2
TABLES
0
TABLE
2
VPORT
5
8
100
AcDbSymbolTable
0
ENDTAB
0
TABLE
2
LTYPE
5
5
100
AcDbSymbolTable
0
LTYPE
5
14
100
AcDbSymbolTableRecord
100
AcDbLinetypeTableRecord
2
BYBLOCK
70
0
0
LTYPE
5
15
100
AcDbSymbolTableRecord
100
AcDbLinetypeTableRecord
2
BYLAYER
70
0
0
ENDTAB
0
TABLE
2
LAYER
5
2
100
AcDbSymbolTable
70
2
0
LAYER
5
50
100
AcDbSymbolTableRecord
100
AcDbLayerTableRecord
2
0
70
0
6
CONTINUOUS
0
ENDTAB
0
TABLE
2
STYLE
5
3
100
AcDbSymbolTable
70
1
0
STYLE
5
11
100
AcDbSymbolTableRecord
100
AcDbTextStyleTableRecord
2
STANDARD
70
0
0
ENDTAB
0
TABLE
2
VIEW
5
6
100
AcDbSymbolTable
70
0
0
ENDTAB
0
TABLE
2
UCS
5
7
100
AcDbSymbolTable
70
0
0
ENDTAB
0
TABLE
2
APPID
5
9
100
AcDbSymbolTable
70
2
0
APPID
5
12
100
AcDbSymbolTableRecord
100
AcDbRegAppTableRecord
2
ACAD
70
0
0
ENDTAB
0
TABLE
2
DIMSTYLE
5
A
100
AcDbSymbolTable
70
1
0
ENDTAB
0
TABLE
2
BLOCK_RECORD
5
1
100
AcDbSymbolTable
70
1
0
BLOCK_RECORD
5
1F
100
AcDbSymbolTableRecord
100
AcDbBlockTableRecord
2
*MODEL_SPACE
0
BLOCK_RECORD
5
1B
100
AcDbSymbolTableRecord
100
AcDbBlockTableRecord
2
*PAPER_SPACE
0
ENDTAB
0
ENDSEC
0
SECTION
2
BLOCKS
0
BLOCK
5
20
100
AcDbEntity
100
AcDbBlockBegin
2
*MODEL_SPACE
0
ENDBLK
5
21
100
AcDbEntity
100
AcDbBlockEnd
0
BLOCK
5
1C
100
AcDbEntity
100
AcDbBlockBegin
2
*PAPER_SPACE
0
ENDBLK
5
1D
100
AcDbEntity
100
AcDbBlockEnd
0
ENDSEC
0
SECTION
2
ENTITIES
0
LWPOLYLINE
5
100
100
AcDbEntity
8
0
100
AcDbPolyline
90
40
70
1
43
0.0
10
-67.624999999999943
20
-5.0913702417494893
42
-0.41421356237309209
10
-69.174999999999926
20
-3.541370241749493
10
-69.17499999999994
20
-1.5413702417495012
42
0.41421356237309503
10
-70.724999999999937
20
0.0086297582504990793
10
-234.07499999999996
20
0.0086297582504968329
42
0.41421356237309503
10
-235.62499999999997
20
-1.5413702417495034
10
-235.62499999999994
20
-3.5413702417495037
42
-0.41421356237310269
10
-237.17499999999998
20
-5.0913702417495044
10
-239.07499999999996
20
-5.0913702417494839
42
-0.41421356237310269
10
-240.62499999999997
20
-3.5413702417495028
10
-240.62499999999997
20
-1.5413702417495034
42
0.41421356237309515
10
-242.17499999999998
20
0.0086297582504972336
10
-303.25
20
0.0086297582504840653
42
-0.41421356237309598
10
-304.80000000000007
20
1.5586297582505004
10
-304.80000000000007
20
93.70862975825051
42
-0.41421356237310508
10
-303.25
20
95.258629758250521
10
-242.17499999999998
20
95.258629758250521
42
0.41421356237309503
10
-240.62499999999997
20
96.808629758250518
10
-240.625
20
98.808629758250532
42
-0.4142135623731118
10
-239.07499999999996
20
100.35862975825054
10
-237.17499999999995
20
100.35862975825054
42
-0.41421356237309842
10
-235.62499999999997
20
98.808629758250547
10
-235.62499999999997
20
96.808629758250532
42
0.41421356237309503
10
-234.07499999999996
20
95.258629758250521
10
-70.724999999999937
20
95.258629758250521
42
0.41421356237309503
10
-69.174999999999926
20
96.808629758250518
10
-69.174999999999912
20
98.808629758250561
42
-0.41421356237309004
10
-67.624999999999943
20
100.35862975825053
10
-65.724999999999937
20
100.35862975825054
42
-0.41421356237310009
10
-64.174999999999926
20
98.808629758250547
10
-64.174999999999926
20
96.808629758250532
42
0.41421356237309503
10
-62.624999999999929
20
95.258629758250521
10
-1.5500000000000012
20
95.258629758250521
42
-0.4142135623731022
10
0
20
93.708629758250538
10
5.8286708792820718e-15
20
1.5586297582504982
42
-0.41421356237309193
10
-1.5499999999999758
20
0.0086297582504979431
10
-62.624999999999922
20
0.0086297582504968329
42
0.41421356237309503
10
-64.174999999999926
20
-1.5413702417495034
10
-64.174999999999926
20
-3.5413702417494992
42
-0.41421356237309481
10
-65.724999999999937
20
-5.0913702417494999
0
LWPOLYLINE
5
101
100
AcDbEntity
8
0
100
AcDbPolyline
90
8
70
1
43
0.0
10
-179.23749999999998
20
73.683629758250532
42
-0.41421356237312623
10
-178.73750000000001
20
73.183629758250518
10
-178.73749999999995
20
60.183629758250504
42
-0.41421356237310025
10
-179.23750000000001
20
59.683629758250511
10
-192.23750000000001
20
59.683629758250532
42
-0.41421356237315748
10
-192.73750000000004
20
60.183629758250504
10
-192.73750000000001
20
73.183629758250518
42
-0.4142135623730378
10
-192.23750000000001
20
73.683629758250518
0
LWPOLYLINE
5
102
100
AcDbEntity
8
0
100
AcDbPolyline
90
8
70
1
43
0.0
10
-77.468749999999986
20
77.233629758250515
42
-0.41421356237311063
10
-77.96875
20
76.733629758250515
10
-83.968749999999972
20
76.733629758250501
42
-0.41421356237305862
10
-84.46875
20
77.233629758250515
10
-84.46875
20
91.23362975825053
42
-0.41421356237307422
10
-83.96875
20
91.733629758250544
10
-77.96875
20
91.733629758250544
42
-0.41421356237312623
10
-77.46875
20
91.23362975825053
0
LWPOLYLINE
5
103
100
AcDbEntity
8
0
100
AcDbPolyline
90
8
70
1
43
0.0
10
-59.387500000000003
20
73.183629758250518
42
-0.41421356237309503
10
-58.88750000000001
20
73.683629758250518
10
-45.88750000000001
20
73.683629758250518
42
-0.41421356237310025
10
-45.387500000000003
20
73.183629758250518
10
-45.387500000000003
20
60.183629758250504
42
-0.41421356237309503
10
-45.887500000000003
20
59.683629758250511
10
-58.887500000000017
20
59.683629758250511
42
-0.41421356237308982
10
-59.387500000000003
20
60.183629758250504
0
LWPOLYLINE
5
104
100
AcDbEntity
8
0
100
AcDbPolyline
90
8
70
1
43
0.0
10
-207.02500000000003
20
16.033629758250498
42
-0.41421356237301177
10
-206.52500000000003
20
16.533629758250498
10
-193.52500000000003
20
16.533629758250516
42
-0.41421356237314316
10
-193.02500000000003
20
16.033629758250498
10
-193.02499999999998
20
3.0336297582504912
42
-0.41421356237307294
10
-193.52500000000003
20
2.533629758250497
10
-206.52500000000003
20
2.5336297582505214
42
-0.41421356237309731
10
-207.02500000000001
20
3.0336297582504956
0
LWPOLYLINE
5
105
100
AcDbEntity
8
0
100
AcDbPolyline
90
8
70
1
43
0.0
10
-302.27499999999998
20
92.23362975825053
42
-0.41421356237309503
10
-301.77499999999998
20
92.73362975825053
10
-288.77499999999998
20
92.733629758250515
42
-0.41421356237304302
10
-288.27499999999998
20
92.23362975825053
10
-288.27499999999998
20
79.233629758250501
42
-0.4142135623730378
10
-288.77499999999998
20
78.733629758250501
10
-301.77499999999998
20
78.733629758250473
42
-0.41421356237314705
10
-302.27499999999998
20
79.233629758250501
0
LWPOLYLINE
5
106
100
AcDbEntity
8
0
100
AcDbPolyline
90
8
70
1
43
0.0
10
-302.27500000000009
20
54.133629758250521
42
-0.41421356237310025
10
-301.77499999999998
20
54.633629758250521
10
-288.77499999999998
20
54.633629758250528
42
-0.41421356237307422
10
-288.27499999999998
20
54.133629758250521
10
-288.27499999999998
20
41.133629758250493
42
-0.4142135623730378
10
-288.77499999999998
20
40.6336297582505
10
-301.77499999999998
20
40.633629758250471
42
-0.41421356237314705
10
-302.27499999999998
20
41.133629758250493
0
LWPOLYLINE
5
107
100
AcDbEntity
8
0
100
AcDbPolyline
90
8
70
1
43
0.0
10
-5.4062500000000036
20
92.73362975825053
42
-0.41421356237306967
10
-4.90625
20
92.23362975825053
10
-4.9062499999999982
20
79.233629758250501
42
-0.41421356237309698
10
-5.4062499999999991
20
78.733629758250501
10
-18.406249999999993
20
78.733629758250501
42
-0.41421356237310153
10
-18.906250000000004
20
79.233629758250501
10
-18.906250000000004
20
92.23362975825053
42
-0.41421356237310153
10
-18.40625
20
92.733629758250515
0
LWPOLYLINE
5
108
100
AcDbEntity
8
0
100
AcDbPolyline
90
8
70
1
43
0.0
10
-284.06250000000006
20
35.083629758250503
42
-0.41421356237300661
10
-283.5625
20
35.583629758250495
10
-282.5625
20
35.583629758250531
42
-0.41421356237310802
10
-282.0625
20
35.083629758250503
10
-282.0625
20
22.083629758250503
42
-0.41421356237301699
10
-282.5625
20
21.583629758250499
10
-283.5625
20
21.583629758250478
42
-0.41421356237310281
10
-284.06250000000006
20
22.083629758250499
0
LWPOLYLINE
5
109
100
AcDbEntity
8
0
100
AcDbPolyline
90
8
70
1
43
0.0
10
-230.83750000000009
20
73.183629758250518
42
-0.41421356237310025
10
-230.33750000000001
20
73.683629758250518
10
-217.33750000000001
20
73.683629758250518
42
-0.41421356237307422
10
-216.83750000000003
20
73.183629758250518
10
-216.83750000000003
20
60.183629758250504
42
-0.4142135623730378
10
-217.33750000000001
20
59.683629758250511
10
-230.33749999999998
20
59.683629758250483
42
-0.41421356237314705
10
-230.83750000000003
20
60.183629758250504
0
LWPOLYLINE
5
110
100
AcDbEntity
8
0
100
AcDbPolyline
90
8
70
1
43
0.0
10
-131.61250000000001
20
54.633629758250528
42
-0.41421356237309503
10
-131.11250000000001
20
54.133629758250521
10
-131.11250000000001
20
41.133629758250493
42
-0.41421356237312623
10
-131.61250000000001
20
40.6336297582505
10
-144.61250000000004
20
40.633629758250478
42
-0.41421356237308982
10
-145.11250000000001
20
41.133629758250493
10
-145.11250000000001
20
54.133629758250521
42
-0.41421356237307944
10
-144.61250000000001
20
54.633629758250521
0
LWPOLYLINE
5
111
100
AcDbEntity
8
0
100
AcDbPolyline
90
8
70
1
43
0.0
10
-16.524999999999999
20
16.033629758250498
42
-0.41421356237309764
10
-16.024999999999999
20
16.533629758250498
10
-3.0249999999999844
20
16.533629758250498
42
-0.41421356237308593
10
-2.5249999999999999
20
16.033629758250498
10
-2.5249999999999995
20
3.0336297582504912
42
-0.41421356237309148
10
-3.0249999999999999
20
2.533629758250497
10
-16.024999999999991
20
2.5336297582504974
42
-0.41421356237310086
10
-16.524999999999999
20
3.0336297582504956
0
LWPOLYLINE
5
112
100
AcDbEntity
8
0
100
AcDbPolyline
90
8
70
1
43
0.0
10
-264.46249999999998
20
22.083629758250499
42
-0.41421356237312362
10
-264.96249999999998
20
21.583629758250499
10
-277.96249999999998
20
21.583629758250492
42
-0.41421356237307422
10
-278.46249999999998
20
22.083629758250499
10
-278.46250000000003
20
35.083629758250503
42
-0.41421356237310542
10
-277.96249999999998
20
35.583629758250503
10
-264.96249999999998
20
35.58362975825051
42
-0.41421356237313928
10
-264.46249999999998
20
35.083629758250503
0
LWPOLYLINE
5
113
100
AcDbEntity
8
0
100
AcDbPolyline
90
8
70
1
43
0.0
10
-22.075000000000003
20
16.533629758250498
42
-0.41421356237309892
10
-21.575000000000003
20
16.033629758250498
10
-21.575000000000003
20
3.0336297582505001
42
-0.4142135623730937
10
-22.074999999999999
20
2.533629758250497
10
-35.075000000000003
20
2.5336297582504907
42
-0.41421356237309698
10
-35.575000000000003
20
3.0336297582504956
10
-35.575000000000003
20
16.033629758250498
42
-0.41421356237309631
10
-35.075000000000003
20
16.533629758250498
0
LWPOLYLINE
5
114
100
AcDbEntity
8
0
100
AcDbPolyline
90
8
70
1
43
0.0
10
-302.27500000000009
20
73.183629758250518
42
-0.41421356237310025
10
-301.77499999999998
20
73.683629758250518
10
-288.77499999999998
20
73.683629758250518
42
-0.41421356237307422
10
-288.27499999999998
20
73.183629758250518
10
-288.27499999999998
20
60.183629758250504
42
-0.4142135623730378
10
-288.77499999999998
20
59.683629758250511
10
-301.77499999999998
20
59.683629758250483
42
-0.41421356237314705
10
-302.27499999999998
20
60.183629758250504
0
LWPOLYLINE
5
115
100
AcDbEntity
8
0
100
AcDbPolyline
90
8
70
1
43
0.0
10
-45.100000000000016
20
35.083629758250503
42
-0.41421356237307944
10
-44.600000000000001
20
35.583629758250503
10
-31.600000000000001
20
35.583629758250495
42
-0.41421356237309503
10
-31.100000000000001
20
35.083629758250503
10
-31.100000000000001
20
22.083629758250503
42
-0.41421356237309764
10
-31.600000000000001
20
21.583629758250499
10
-44.600000000000009
20
21.583629758250488
42
-0.41421356237309243
10
-45.100000000000009
20
22.083629758250499
0
LWPOLYLINE
5
116
100
AcDbEntity
8
0
100
AcDbPolyline
90
8
70
1
43
0.0
10
-64.150000000000006
20
35.083629758250503
42
-0.41421356237307944
10
-63.650000000000006
20
35.583629758250503
10
-50.650000000000013
20
35.583629758250495
42
-0.41421356237310025
10
-50.150000000000006
20
35.083629758250503
10
-50.150000000000006
20
22.083629758250503
42
-0.41421356237309764
10
-50.650000000000006
20
21.583629758250499
10
-63.650000000000006
20
21.583629758250499
42
-0.41421356237311063
10
-64.150000000000006
20
22.083629758250499
0
LWPOLYLINE
5
117
100
AcDbEntity
8
0
100
AcDbPolyline
90
8
70
1
43
0.0
10
-240.3625000000001
20
54.133629758250521
42
-0.41421356237310025
10
-239.86250000000001
20
54.633629758250521
10
-226.86250000000001
20
54.633629758250493
42
-0.41421356237315748
10
-226.36250000000001
20
54.133629758250521
10
-226.36250000000004
20
41.133629758250493
42
-0.4142135623730378
10
-226.86250000000001
20
40.6336297582505
10
-239.86249999999998
20
40.633629758250471
42
-0.41421356237314705
10
-240.36250000000001
20
41.133629758250493
0
LWPOLYLINE
5
118
100
AcDbEntity
8
0
100
AcDbPolyline
90
8
70
1
43
0.0
10
-168.92500000000001
20
16.033629758250498
42
-0.41421356237301177
10
-168.42500000000001
20
16.533629758250498
10
-155.42500000000004
20
16.533629758250513
42
-0.41421356237308854
10
-154.92500000000001
20
16.033629758250498
10
-154.92500000000001
20
3.0336297582504912
42
-0.41421356237306639
10
-155.42500000000001
20
2.533629758250497
10
-168.42500000000001
20
2.5336297582504734
42
-0.41421356237310447
10
-168.92500000000001
20
3.0336297582504956
0
LWPOLYLINE
5
119
100
AcDbEntity
8
0
100
AcDbPolyline
90
8
70
1
43
0.0
10
-21.287500000000001
20
35.083629758250503
42
-0.41421356237309503
10
-20.787500000000001
20
35.583629758250495
10
-7.7874999999999872
20
35.583629758250495
42
-0.41421356237308982
10
-7.2874999999999996
20
35.083629758250503
10
-7.2875000000000023
20
22.083629758250495
42
-0.41421356237309243
10
-7.7875000000000005
20
21.583629758250499
10
-20.787499999999994
20
21.583629758250499
42
-0.41421356237310025
10
-21.287500000000001
20
22.083629758250499
0
LWPOLYLINE
5
120
100
AcDbEntity
8
0
100
AcDbPolyline
90
8
70
1
43
0.0
10
-117.32500000000002
20
16.533629758250505
42
-0.41421356237309503
10
-116.82500000000002
20
16.033629758250498
10
-116.82499999999999
20
3.0336297582505001
42
-0.41421356237310447
10
-117.32500000000002
20
2.533629758250497
10
-130.32499999999999
20
2.5336297582504912
42
-0.41421356237309404
10
-130.82499999999999
20
3.0336297582504956
10
-130.82499999999999
20
16.033629758250498
42
-0.41421356237312884
10
-130.32499999999999
20
16.533629758250498
0
LWPOLYLINE
5
121
100
AcDbEntity
8
0
100
AcDbPolyline
90
8
70
1
43
0.0
10
-279.75675000000012
20
56.133629758250514
42
-0.41421356237310025
10
-279.25675000000001
20
56.633629758250514
10
-273.25675000000001
20
56.633629758250486
42
-0.41421356237315748
10
-272.75675000000001
20
56.133629758250514
10
-272.75675000000007
20
42.133629758250507
42
-0.4142135623730378
10
-273.25675000000001
20
41.633629758250514
10
-279.25675000000001
20
41.633629758250486
42
-0.41421356237314705
10
-279.75675000000001
20
42.133629758250507
0
LWPOLYLINE
5
122
100
AcDbEntity
8
0
100
AcDbPolyline
90
8
70
1
43
0.0
10
-73.674999999999997
20
16.033629758250498
42
-0.41421356237309503
10
-73.174999999999997
20
16.533629758250498
10
-60.174999999999997
20
16.533629758250498
42
-0.41421356237309631
10
-59.675000000000004
20
16.033629758250498
10
-59.675000000000004
20
3.0336297582504912
42
-0.4142135623730947
10
-60.174999999999997
20
2.533629758250497
10
-73.174999999999983
20
2.5336297582504996
42
-0.41421356237309959
10
-73.674999999999997
20
3.0336297582504956
0
LWPOLYLINE
5
123
100
AcDbEntity
8
0
100
AcDbPolyline
90
8
70
1
43
0.0
10
-126.0625
20
54.133629758250521
42
-0.41421356237307944
10
-125.5625
20
54.633629758250521
10
-112.56250000000001
20
54.633629758250528
42
-0.41421356237309503
10
-112.0625
20
54.133629758250521
10
-112.0625
20
41.133629758250493
42
-0.41421356237312623
10
-112.56250000000001
20
40.6336297582505
10
-125.56250000000003
20
40.633629758250478
42
-0.41421356237308982
10
-126.06250000000001
20
41.133629758250493
0
LWPOLYLINE
5
124
100
AcDbEntity
8
0
100
AcDbPolyline
90
8
70
1
43
0.0
10
-235.60000000000005
20
35.083629758250503
42
-0.41421356237307161
10
-235.10000000000002
20
35.583629758250495
10
-222.10000000000002
20
35.583629758250531
42
-0.41421356237310802
10
-221.59999999999999
20
35.083629758250503
10
-221.59999999999999
20
22.083629758250503
42
-0.41421356237301699
10
-222.10000000000002
20
21.583629758250499
10
-235.10000000000002
20
21.583629758250481
42
-0.41421356237314183
10
-235.60000000000002
20
22.083629758250499
0
LWPOLYLINE
5
125
100
AcDbEntity
8
0
100
AcDbPolyline
90
20
70
1
43
0.0
10
-251.762
20
18.533629758250491
42
-0.41421356237312756
10
-251.262
20
18.033629758250498
10
-251.262
20
16.533629758250498
10
-250.67500000000001
20
16.533629758250491
42
-0.41421356237312756
10
-250.17500000000001
20
16.033629758250498
10
-250.17500000000001
20
3.0336297582504912
42
-0.41421356237300855
10
-250.67500000000001
20
2.533629758250497
10
-282.72500000000002
20
2.5336297582504734
42
-0.41421356237310447
10
-283.22500000000002
20
3.0336297582504956
10
-283.22500000000002
20
16.033629758250498
42
-0.41421356237301177
10
-282.72500000000002
20
16.533629758250498
10
-282.13799999999998
20
16.533629758250498
10
-282.13800000000003
20
18.033629758250498
42
-0.41421356237307683
10
-281.63799999999998
20
18.533629758250502
10
-275.63800000000003
20
18.533629758250491
42
-0.41421356237312756
10
-275.13799999999998
20
18.033629758250498
10
-275.13799999999998
20
16.533629758250498
10
-258.26200000000006
20
16.533629758250498
10
-258.26200000000006
20
18.033629758250498
42
-0.41421356237301177
10
-257.76200000000006
20
18.533629758250502
0
LWPOLYLINE
5
126
100
AcDbEntity
8
0
100
AcDbPolyline
90
8
70
1
43
0.0
10
-27.268750000000001
20
41.133629758250493
42
-0.41421356237309764
10
-27.768750000000004
20
40.6336297582505
10
-28.768750000000001
20
40.633629758250507
42
-0.41421356237310281
10
-29.268749999999997
20
41.133629758250493
10
-29.268750000000004
20
54.133629758250521
42
-0.41421356237309764
10
-28.768750000000001
20
54.633629758250521
10
-27.768750000000004
20
54.633629758250528
42
-0.41421356237307944
10
-27.268750000000001
20
54.133629758250521
0
LWPOLYLINE
5
127
100
AcDbEntity
8
0
100
AcDbPolyline
90
8
70
1
43
0.0
10
-88.25
20
22.083629758250499
42
-0.41421356237313145
10
-88.75
20
21.583629758250499
10
-101.75
20
21.583629758250492
42
-0.41421356237309503
10
-102.25000000000001
20
22.083629758250499
10
-102.25000000000001
20
35.083629758250503
42
-0.41421356237312884
10
-101.75
20
35.583629758250495
10
-88.75
20
35.583629758250503
42
-0.41421356237309243
10
-88.25
20
35.083629758250503
0
LWPOLYLINE
5
128
100
AcDbEntity
8
0
100
AcDbPolyline
90
8
70
1
43
0.0
10
-68.912499999999994
20
54.133629758250521
42
-0.41421356237309503
10
-68.412499999999994
20
54.633629758250521
10
-55.412500000000016
20
54.633629758250521
42
-0.41421356237310025
10
-54.912500000000009
20
54.133629758250521
10
-54.912500000000009
20
41.133629758250493
42
-0.41421356237309503
10
-55.412500000000009
20
40.6336297582505
10
-68.412499999999994
20
40.6336297582505
42
-0.41421356237310025
10
-68.912499999999994
20
41.133629758250493
0
LWPOLYLINE
5
129
100
AcDbEntity
8
0
100
AcDbPolyline
90
8
70
1
43
0.0
10
-124.46875
20
92.733629758250515
42
-0.41421356237309503
10
-123.96875000000001
20
92.23362975825053
10
-123.96875000000001
20
79.233629758250501
42
-0.41421356237307944
10
-124.46875
20
78.733629758250501
10
-137.46875000000003
20
78.733629758250487
42
-0.41421356237308982
10
-137.96875000000003
20
79.233629758250501
10
-137.96875
20
92.23362975825053
42
-0.41421356237309503
10
-137.46875
20
92.733629758250515
0
LWPOLYLINE
5
130
100
AcDbEntity
8
0
100
AcDbPolyline
90
8
70
1
43
0.0
10
-260.86250000000001
20
35.083629758250503
42
-0.41421356237300661
10
-260.36250000000001
20
35.583629758250495
10
-259.36250000000001
20
35.58362975825051
42
-0.41421356237307683
10
-258.86250000000007
20
35.083629758250503
10
-258.86250000000001
20
22.083629758250503
42
-0.41421356237301699
10
-259.36250000000001
20
21.583629758250499
10
-260.36250000000001
20
21.583629758250478
42
-0.41421356237310281
10
-260.86250000000001
20
22.083629758250499
0
LWPOLYLINE
5
131
100
AcDbEntity
8
0
100
AcDbPolyline
90
8
70
1
43
0.0
10
-98.275000000000006
20
16.533629758250505
42
-0.41421356237309503
10
-97.775000000000006
20
16.033629758250498
10
-97.774999999999977
20
3.0336297582505001
42
-0.41421356237310447
10
-98.275000000000006
20
2.533629758250497
10
-111.27500000000001
20
2.5336297582504912
42
-0.41421356237309404
10
-111.77500000000002
20
3.0336297582504956
10
-111.77500000000006
20
16.033629758250498
42
-0.41421356237311452
10
-111.27500000000001
20
16.533629758250498
0
LWPOLYLINE
5
132
100
AcDbEntity
8
0
100
AcDbPolyline
90
8
70
1
43
0.0
10
-5.9932499999999989
20
61.183629758250504
42
-0.41421356237309698
10
-6.4932500000000006
20
60.683629758250504
10
-12.493249999999989
20
60.683629758250504
42
-0.41421356237310153
10
-12.99325
20
61.183629758250504
10
-12.993249999999998
20
75.183629758250518
42
-0.41421356237309503
10
-12.49325
20
75.683629758250518
10
-6.4932500000000104
20
75.683629758250518
42
-0.41421356237309892
10
-5.9932500000000033
20
75.183629758250518
0
LWPOLYLINE
5
133
100
AcDbEntity
8
0
100
AcDbPolyline
90
8
70
1
43
0.0
10
-243.53125
20
73.683629758250532
42
-0.41421356237312623
10
-243.03125
20
73.183629758250518
10
-243.03124999999994
20
60.183629758250504
42
-0.41421356237310025
10
-243.53125000000003
20
59.683629758250511
10
-256.53125
20
59.683629758250504
42
-0.41421356237307422
10
-257.03125
20
60.183629758250504
10
-257.03125
20
73.183629758250518
42
-0.4142135623730378
10
-256.53125
20
73.683629758250518
0
LWPOLYLINE
5
134
100
AcDbEntity
8
0
100
AcDbPolyline
90
40
70
1
43
0.0
10
-103.10026535737381
20
79.611747958250533
42
-0.01746299999997138
10
-102.82689827737383
20
79.96319363825053
42
0.040523000000000108
10
-102.43539143737382
20
80.517431278250498
42
0.057107000000002531
10
-102.18899087737384
20
81.069324958250519
42
0.055276000000000228
10
-102.06885143737381
20
81.676382758250526
42
0.035055000000001613
10
-102.05812523737382
20
82.398145318250499
42
0.033271000000001438
10
-102.14564267737384
20
83.113490278250509
42
0.054924999999998385
10
-102.32421503737382
20
83.694891838250498
42
0.056555999999999725
10
-102.62061599737379
20
84.211696558250509
42
0.037771000000001421
10
-103.06528511737383
20
84.729851638250466
42
0.096457000000001417
10
-104.1285622773738
20
85.447563598250554
42
0.09509500000000011
10
-105.38887319737383
20
85.718576758250506
42
0.094653000000000209
10
-106.66485443737383
20
85.504070878250531
42
0.094533000000000186
10
-107.77257635737382
20
84.834329038250502
42
-0.017715000000007853
10
-108.20151887737381
20
84.475315078250503
42
-0.089561000000090957
10
-108.47688239737381
20
84.33097235825052
42
-0.1766310000000243
10
-108.68907071737382
20
84.340631278250527
42
-0.12132199999998027
10
-108.88466939737384
20
84.485234638250489
42
-0.105085999999923
10
-108.95692619737383
20
84.62290895825052
42
-0.065720999999912544
10
-108.9829075173738
20
84.803788078250506
42
-0.036911000000013183
10
-108.96610655737383
20
85.072774558250501
42
-0.0084160000000551224
10
-108.89652119737383
20
85.524032518250536
42
-0.11452099999999073
10
-107.87211251737384
20
87.961393918250522
42
-0.11914699999999553
10
-105.89069939737384
20
89.656547758250511
42
-0.1192479999999965
10
-103.35521363737382
20
90.258629758250507
42
-0.11484999999999265
10
-100.78611059737383
20
89.649145918250511
42
-0.11869600000000893
10
-98.724733557373824
20
87.920206438250517
42
-0.12024400000000432
10
-97.688536797373828
20
85.450495918250539
42
-0.12056499999999128
10
-97.907634237373799
20
82.786341238250557
42
-0.11974800000000077
10
-99.33183239737383
20
80.516663038250513
42
-0.030211999999994649
10
-99.891004677373843
20
80.034440758250511
42
-0.031847000000035
10
-100.49482283737382
20
79.632279598250506
42
-0.032288999999996126
10
-101.13662411737381
20
79.314831598250507
42
-0.033031999999995593
10
-101.80915919737375
20
79.085417878250553
42
-0.012007999999992977
10
-102.34352231737377
20
78.9553945182505
42
-0.04475999999998951
10
-102.6865600773738
20
78.912216838250501
42
-0.076736999999955563
10
-102.92194895737383
20
78.93998483825051
42
-0.12941600000008444
10
-103.09260347737381
20
79.039515718250499
42
-0.1076989999999423
10
-103.2026815173738
20
79.21094063825052
42
-0.16044399999994444
10
-103.20941147737383
20
79.387590958250499
42
-0.086730999999986014
0
LWPOLYLINE
5
135
100
AcDbEntity
8
0
100
AcDbPolyline
90
8
70
1
43
0.0
10
-173.6875
20
73.183629758250518
42
-0.4142135623730378
10
-173.1875
20
73.683629758250518
10
-160.1875
20
73.683629758250518
42
-0.41421356237309503
10
-159.6875
20
73.183629758250518
10
-159.6875
20
60.183629758250504
42
-0.41421356237309503
10
-160.1875
20
59.683629758250511
10
-173.1875
20
59.683629758250532
42
-0.41421356237315748
10
-173.68750000000003
20
60.183629758250504
0
LWPOLYLINE
5
136
100
AcDbEntity
8
0
100
AcDbPolyline
90
8
70
1
43
0.0
10
-66.53125
20
92.23362975825053
42
-0.41421356237309503
10
-66.03125
20
92.733629758250515
10
-53.031250000000014
20
92.733629758250515
42
-0.41421356237310542
10
-52.531250000000007
20
92.23362975825053
10
-52.531250000000007
20
79.233629758250501
42
-0.41421356237309503
10
-53.031250000000007
20
78.733629758250501
10
-66.03125
20
78.733629758250501
42
-0.41421356237310542
10
-66.53125
20
79.233629758250501
0
LWPOLYLINE
5
137
100
AcDbEntity
8
0
100
AcDbPolyline
90
8
70
1
43
0.0
10
-187.97500000000002
20
16.033629758250498
42
-0.41421356237307683
10
-187.47499999999999
20
16.533629758250498
10
-174.47500000000002
20
16.533629758250516
42
-0.41421356237314316
10
-173.97500000000002
20
16.033629758250498
10
-173.97499999999997
20
3.0336297582504912
42
-0.41421356237307294
10
-174.47500000000002
20
2.533629758250497
10
-187.47499999999999
20
2.5336297582504814
42
-0.41421356237314155
10
-187.97499999999999
20
3.0336297582504956
0
LWPOLYLINE
5
138
100
AcDbEntity
8
0
100
AcDbPolyline
90
8
70
1
43
0.0
10
-271.31875000000002
20
54.133629758250521
42
-0.4142135623730378
10
-270.81875000000002
20
54.633629758250521
10
-257.81875000000008
20
54.633629758250549
42
-0.41421356237314705
10
-257.31875000000002
20
54.133629758250521
10
-257.31874999999997
20
41.133629758250493
42
-0.41421356237310025
10
-257.81875000000002
20
40.6336297582505
10
-270.81875000000002
20
40.633629758250521
42
-0.41421356237315748
10
-271.31875000000002
20
41.133629758250493
0
LWPOLYLINE
5
139
100
AcDbEntity
8
0
100
AcDbPolyline
90
8
70
1
43
0.0
10
-54.625
20
16.033629758250498
42
-0.4142135623730937
10
-54.125000000000007
20
16.533629758250498
10
-41.125000000000007
20
16.533629758250498
42
-0.41421356237310025
10
-40.625
20
16.033629758250498
10
-40.625
20
3.0336297582504912
42
-0.41421356237309082
10
-41.125
20
2.533629758250497
10
-54.125000000000014
20
2.5336297582504996
42
-0.41421356237308915
10
-54.625
20
3.0336297582504956
0
LWPOLYLINE
5
140
100
AcDbEntity
8
0
100
AcDbPolyline
90
8
70
1
43
0.0
10
-283.22500000000002
20
92.23362975825053
42
-0.41421356237311585
10
-282.72500000000002
20
92.733629758250515
10
-269.72500000000002
20
92.733629758250515
42
-0.41421356237304302
10
-269.22500000000002
20
92.23362975825053
10
-269.22500000000008
20
79.233629758250501
42
-0.4142135623730378
10
-269.72500000000002
20
78.733629758250501
10
-282.72500000000002
20
78.733629758250473
42
-0.41421356237314705
10
-283.22500000000002
20
79.233629758250501
0
LWPOLYLINE
5
141
100
AcDbEntity
8
0
100
AcDbPolyline
90
8
70
1
43
0.0
10
-122.08750000000002
20
73.683629758250518
42
-0.41421356237309503
10
-121.58750000000001
20
73.183629758250518
10
-121.58750000000001
20
60.183629758250504
42
-0.41421356237312623
10
-122.08750000000002
20
59.683629758250511
10
-135.08750000000003
20
59.68362975825049
42
-0.41421356237308982
10
-135.58750000000001
20
60.183629758250504
10
-135.58750000000001
20
73.183629758250518
42
-0.41421356237307944
10
-135.08750000000001
20
73.683629758250518
0
LWPOLYLINE
5
142
100
AcDbEntity
8
0
100
AcDbPolyline
90
8
70
1
43
0.0
10
-233.21875000000006
20
92.23362975825053
42
-0.4142135623730846
10
-232.71875
20
92.73362975825053
10
-219.71875
20
92.73362975825053
42
-0.41421356237309503
10
-219.21875
20
92.23362975825053
10
-219.21874999999994
20
79.233629758250501
42
-0.41421356237310025
10
-219.71875
20
78.733629758250501
10
-232.71875
20
78.73362975825053
42
-0.41421356237315748
10
-233.21875000000003
20
79.233629758250501
0
LWPOLYLINE
5
143
100
AcDbEntity
8
0
100
AcDbPolyline
90
8
70
1
43
0.0
10
-197.50000000000006
20
35.083629758250503
42
-0.41421356237310542
10
-197.00000000000003
20
35.583629758250503
10
-184.00000000000003
20
35.58362975825051
42
-0.41421356237313928
10
-183.5
20
35.083629758250503
10
-183.5
20
22.083629758250503
42
-0.41421356237312623
10
-184.00000000000003
20
21.583629758250499
10
-197.00000000000003
20
21.583629758250492
42
-0.41421356237307422
10
-197.5
20
22.083629758250499
0
CIRCLE
5
144
100
AcDbEntity
8
0
100
AcDbCircle
10
-238.12499999999997
20
98.233629758250544
30
0
40
0.99999999999997868
210
0
220
0
230
1
0
LWPOLYLINE
5
145
100
AcDbEntity
8
0
100
AcDbPolyline
90
8
70
1
43
0.0
10
-150.66249999999999
20
54.633629758250528
42
-0.41421356237309503
10
-150.16249999999999
20
54.133629758250521
10
-150.16249999999999
20
41.133629758250493
42
-0.41421356237312623
10
-150.66249999999999
20
40.6336297582505
10
-163.66250000000002
20
40.633629758250521
42
-0.41421356237315748
10
-164.16250000000002
20
41.133629758250493
10
-164.16249999999997
20
54.133629758250521
42
-0.4142135623730378
10
-163.66250000000002
20
54.633629758250521
0
CIRCLE
5
146
100
AcDbEntity
8
0
100
AcDbCircle
10
-66.674999999999926
20
98.233629758250544
30
0
40
1.0000000000000142
210
0
220
-0
230
1
0
LWPOLYLINE
5
147
100
AcDbEntity
8
0
100
AcDbPolyline
90
8
70
1
43
0.0
10
-23.66875000000001
20
54.133629758250521
42
-0.41421356237310281
10
-23.168749999999999
20
54.633629758250521
10
-5.4062500000000213
20
54.633629758250521
42
-0.41421356237310997
10
-4.90625
20
54.133629758250521
10
-4.9062500000000142
20
41.133629758250493
42
-0.41421356237309959
10
-5.4062500000000036
20
40.633629758250514
10
-23.168749999999996
20
40.633629758250507
42
-0.41421356237311324
10
-23.668749999999999
20
41.133629758250493
0
CIRCLE
5
148
100
AcDbEntity
8
0
100
AcDbCircle
10
-66.674999999999926
20
-2.9663702417495061
30
0
40
0.99999999999998757
210
0
220
0
230
1
0
CIRCLE
5
149
100
AcDbEntity
8
0
100
AcDbCircle
10
-238.12499999999997
20
-2.9663702417495061
30
0
40
0.99999999999997868
210
0
220
0
230
1
0
LWPOLYLINE
5
150
100
AcDbEntity
8
0
100
AcDbPolyline
90
8
70
1
43
0.0
10
-255.88075000000009
20
56.133629758250514
42
-0.41421356237310025
10
-255.38075000000003
20
56.633629758250514
10
-249.38075000000003
20
56.633629758250535
42
-0.41421356237314705
10
-248.88075000000001
20
56.133629758250514
10
-248.88074999999992
20
42.133629758250507
42
-0.41421356237310025
10
-249.38075000000001
20
41.633629758250514
10
-255.38074999999998
20
41.633629758250486
42
-0.41421356237314705
10
-255.88075000000003
20
42.133629758250507
0
LWPOLYLINE
5
151
100
AcDbEntity
8
0
100
AcDbPolyline
90
8
70
1
43
0.0
10
-202.26250000000007
20
54.133629758250521
42
-0.41421356237310025
10
-201.76249999999999
20
54.633629758250521
10
-188.76249999999999
20
54.633629758250493
42
-0.41421356237315748
10
-188.26249999999999
20
54.133629758250521
10
-188.26250000000002
20
41.133629758250493
42
-0.4142135623730378
10
-188.76249999999999
20
40.6336297582505
10
-201.76249999999996
20
40.633629758250471
42
-0.41421356237314705
10
-202.26249999999999
20
41.133629758250493
0
LWPOLYLINE
5
152
100
AcDbEntity
8
0
100
AcDbPolyline
90
8
70
1
43
0.0
10
-183.21249999999998
20
54.133629758250521
42
-0.4142135623730378
10
-182.71250000000003
20
54.633629758250521
10
-169.71250000000003
20
54.633629758250549
42
-0.41421356237314705
10
-169.21250000000001
20
54.133629758250521
10
-169.21249999999992
20
41.133629758250493
42
-0.41421356237310025
10
-169.71250000000001
20
40.6336297582505
10
-182.71250000000003
20
40.633629758250521
42
-0.41421356237315748
10
-183.21250000000003
20
41.133629758250493
0
LWPOLYLINE
5
153
100
AcDbEntity
8
0
100
AcDbPolyline
90
8
70
1
43
0.0
10
-216.55000000000004
20
35.083629758250503
42
-0.41421356237300661
10
-216.05000000000004
20
35.583629758250495
10
-203.05000000000004
20
35.58362975825051
42
-0.41421356237313928
10
-202.55000000000001
20
35.083629758250503
10
-202.55000000000001
20
22.083629758250503
42
-0.41421356237312623
10
-203.05000000000004
20
21.583629758250499
10
-216.05000000000004
20
21.583629758250478
42
-0.41421356237310281
10
-216.55000000000004
20
22.083629758250499
0
LWPOLYLINE
5
154
100
AcDbEntity
8
0
100
AcDbPolyline
90
8
70
1
43
0.0
10
-78.4375
20
73.183629758250518
42
-0.41421356237309503
10
-77.9375
20
73.683629758250518
10
-64.9375
20
73.683629758250518
42
-0.41421356237310542
10
-64.4375
20
73.183629758250518
10
-64.4375
20
60.183629758250504
42
-0.41421356237310542
10
-64.9375
20
59.683629758250511
10
-77.9375
20
59.683629758250511
42
-0.41421356237310025
10
-78.4375
20
60.183629758250504
0
LWPOLYLINE
5
155
100
AcDbEntity
8
0
100
AcDbPolyline
90
8
70
1
43
0.0
10
-103.03750000000001
20
73.683629758250518
42
-0.41421356237309503
10
-102.53749999999999
20
73.183629758250518
10
-102.53749999999999
20
60.183629758250504
42
-0.41421356237312623
10
-103.03750000000001
20
59.683629758250511
10
-116.03750000000002
20
59.68362975825049
42
-0.41421356237308982
10
-116.53750000000001
20
60.183629758250504
10
-116.53749999999999
20
73.183629758250518
42
-0.41421356237307944
10
-116.03749999999999
20
73.683629758250518
0
LWPOLYLINE
5
156
100
AcDbEntity
8
0
100
AcDbPolyline
90
8
70
1
43
0.0
10
-302.27500000000003
20
35.083629758250503
42
-0.41421356237307161
10
-301.77499999999998
20
35.583629758250495
10
-288.77499999999998
20
35.58362975825051
42
-0.41421356237307683
10
-288.27499999999998
20
35.083629758250503
10
-288.27499999999998
20
22.083629758250503
42
-0.41421356237301699
10
-288.77499999999998
20
21.583629758250499
10
-301.77499999999998
20
21.583629758250481
42
-0.41421356237314183
10
-302.27499999999998
20
22.083629758250499
0
LWPOLYLINE
5
157
100
AcDbEntity
8
0
100
AcDbPolyline
90
8
70
1
43
0.0
10
-121.29999999999998
20
35.083629758250503
42
-0.41421356237310281
10
-120.8
20
35.583629758250495
10
-107.80000000000001
20
35.583629758250503
42
-0.41421356237309243
10
-107.30000000000001
20
35.083629758250503
10
-107.30000000000001
20
22.083629758250503
42
-0.41421356237313406
10
-107.80000000000001
20
21.583629758250499
10
-120.79999999999998
20
21.583629758250481
42
-0.41421356237305862
10
-121.30000000000001
20
22.083629758250499
0
LWPOLYLINE
5
158
100
AcDbEntity
8
0
100
AcDbPolyline
90
8
70
1
43
0.0
10
-107.01250000000002
20
54.133629758250521
42
-0.41421356237312623
10
-106.51250000000002
20
54.633629758250521
10
-93.512500000000003
20
54.633629758250528
42
-0.41421356237309503
10
-93.012499999999989
20
54.133629758250521
10
-93.012499999999989
20
41.133629758250493
42
-0.41421356237312623
10
-93.512500000000003
20
40.6336297582505
10
-106.51250000000002
20
40.633629758250493
42
-0.41421356237309503
10
-107.01250000000002
20
41.133629758250493
0
LWPOLYLINE
5
159
100
AcDbEntity
8
0
100
AcDbPolyline
90
8
70
1
43
0.0
10
-49.862499999999997
20
54.133629758250521
42
-0.41421356237309503
10
-49.362500000000004
20
54.633629758250521
10
-36.362500000000004
20
54.633629758250507
42
-0.41421356237310025
10
-35.862500000000004
20
54.133629758250521
10
-35.86249999999999
20
41.133629758250493
42
-0.41421356237310281
10
-36.362499999999997
20
40.6336297582505
10
-49.362500000000011
20
40.6336297582505
42
-0.41421356237308982
10
-49.862499999999997
20
41.133629758250493
0
LWPOLYLINE
5
160
100
AcDbEntity
8
0
100
AcDbPolyline
90
8
70
1
43
0.0
10
-237.93125000000003
20
73.68362975825049
42
-0.41421356237315748
10
-237.43125000000003
20
73.183629758250518
10
-237.43125000000006
20
60.183629758250504
42
-0.4142135623730378
10
-237.93125000000003
20
59.683629758250511
10
-238.93124999999998
20
59.683629758250483
42
-0.41421356237314705
10
-239.43125000000003
20
60.183629758250504
10
-239.43125000000009
20
73.183629758250518
42
-0.41421356237310025
10
-238.93125000000001
20
73.683629758250518
0
LWPOLYLINE
5
161
100
AcDbEntity
8
0
100
AcDbPolyline
90
8
70
1
43
0.0
10
-264.17500000000007
20
92.23362975825053
42
-0.41421356237311585
10
-263.67500000000001
20
92.733629758250515
10
-250.67500000000001
20
92.733629758250515
42
-0.41421356237304302
10
-250.17500000000001
20
92.23362975825053
10
-250.17500000000007
20
79.233629758250501
42
-0.4142135623730378
10
-250.67500000000001
20
78.733629758250501
10
-263.67500000000001
20
78.733629758250473
42
-0.41421356237314705
10
-264.17500000000007
20
79.233629758250501
0
LWPOLYLINE
5
162
100
AcDbEntity
8
0
100
AcDbPolyline
90
8
70
1
43
0.0
10
-283.22500000000014
20
73.183629758250518
42
-0.41421356237310025
10
-282.72500000000002
20
73.683629758250518
10
-269.72500000000002
20
73.68362975825049
42
-0.41421356237315748
10
-269.22500000000002
20
73.183629758250518
10
-269.22500000000008
20
60.183629758250504
42
-0.4142135623730378
10
-269.72500000000002
20
59.683629758250511
10
-282.72500000000002
20
59.683629758250483
42
-0.41421356237314705
10
-283.22500000000002
20
60.183629758250504
0
LWPOLYLINE
5
163
100
AcDbEntity
8
0
100
AcDbPolyline
90
8
70
1
43
0.0
10
-83.200000000000003
20
35.083629758250503
42
-0.41421356237310281
10
-82.700000000000017
20
35.583629758250495
10
-69.700000000000003
20
35.583629758250503
42
-0.41421356237309764
10
-69.200000000000003
20
35.083629758250503
10
-69.200000000000017
20
22.083629758250503
42
-0.41421356237310025
10
-69.700000000000003
20
21.583629758250499
10
-82.699999999999989
20
21.583629758250481
42
-0.41421356237305862
10
-83.200000000000017
20
22.083629758250499
0
LWPOLYLINE
5
164
100
AcDbEntity
8
0
100
AcDbPolyline
90
8
70
1
43
0.0
10
-29.21875
20
92.733629758250515
42
-0.41421356237310281
10
-28.71875
20
92.23362975825053
10
-28.718749999999996
20
79.233629758250501
42
-0.41421356237309764
10
-29.21875
20
78.733629758250501
10
-42.218750000000007
20
78.733629758250501
42
-0.41421356237308982
10
-42.71875
20
79.233629758250501
10
-42.71875
20
92.233629758250544
42
-0.41421356237308982
10
-42.21875
20
92.733629758250515
0
LWPOLYLINE
5
165
100
AcDbEntity
8
0
100
AcDbPolyline
90
8
70
1
43
0.0
10
-141.13749999999999
20
73.683629758250518
42
-0.41421356237309503
10
-140.63749999999999
20
73.183629758250518
10
-140.63749999999999
20
60.183629758250504
42
-0.41421356237312623
10
-141.13749999999999
20
59.683629758250511
10
-154.13749999999999
20
59.683629758250504
42
-0.41421356237309503
10
-154.63750000000002
20
60.183629758250504
10
-154.63750000000002
20
73.183629758250518
42
-0.41421356237312623
10
-154.13749999999999
20
73.683629758250518
0
LWPOLYLINE
5
166
100
AcDbEntity
8
0
100
AcDbPolyline
90
8
70
1
43
0.0
10
-164.44999999999999
20
22.083629758250499
42
-0.41421356237312362
10
-164.95000000000002
20
21.583629758250499
10
-177.94999999999999
20
21.583629758250481
42
-0.41421356237314183
10
-178.44999999999999
20
22.083629758250499
10
-178.44999999999999
20
35.083629758250503
42
-0.41421356237314444
10
-177.94999999999999
20
35.583629758250503
10
-164.95000000000002
20
35.58362975825051
42
-0.41421356237313928
10
-164.44999999999999
20
35.083629758250503
0
LWPOLYLINE
5
167
100
AcDbEntity
8
0
100
AcDbPolyline
90
8
70
1
43
0.0
10
-245.12500000000006
20
16.033629758250498
42
-0.41421356237307683
10
-244.62500000000003
20
16.533629758250498
10
-231.625
20
16.533629758250491
42
-0.41421356237312756
10
-231.125
20
16.033629758250498
10
-231.125
20
3.0336297582504912
42
-0.41421356237300855
10
-231.625
20
2.533629758250497
10
-244.62500000000003
20
2.5336297582504814
42
-0.41421356237314155
10
-245.12500000000003
20
3.0336297582504956
0
LWPOLYLINE
5
168
100
AcDbEntity
8
0
100
AcDbPolyline
90
8
70
1
43
0.0
10
-226.07500000000005
20
16.033629758250498
42
-0.41421356237307683
10
-225.57500000000002
20
16.533629758250498
10
-212.57499999999999
20
16.533629758250491
42
-0.41421356237312756
10
-212.07499999999999
20
16.033629758250498
10
-212.07499999999999
20
3.0336297582504912
42
-0.41421356237300855
10
-212.57499999999999
20
2.533629758250497
10
-225.57500000000002
20
2.5336297582504814
42
-0.41421356237314155
10
-226.07500000000002
20
3.0336297582504956
0
LWPOLYLINE
5
169
100
AcDbEntity
8
0
100
AcDbPolyline
90
8
70
1
43
0.0
10
-211.78750000000008
20
73.183629758250518
42
-0.41421356237310025
10
-211.28749999999999
20
73.683629758250518
10
-198.28749999999999
20
73.68362975825049
42
-0.41421356237315748
10
-197.78749999999999
20
73.183629758250518
10
-197.78750000000002
20
60.183629758250504
42
-0.4142135623730378
10
-198.28749999999999
20
59.683629758250511
10
-211.28749999999997
20
59.683629758250483
42
-0.41421356237314705
10
-211.78750000000002
20
60.183629758250504
0
LWPOLYLINE
5
170
100
AcDbEntity
8
0
100
AcDbPolyline
90
8
70
1
43
0.0
10
-183.96875
20
76.733629758250558
42
-0.41421356237314705
10
-184.46875000000003
20
77.233629758250515
10
-184.46875
20
91.23362975825053
42
-0.41421356237316787
10
-183.96875
20
91.733629758250544
10
-177.96875
20
91.733629758250558
42
-0.41421356237310542
10
-177.46875
20
91.23362975825053
10
-177.46875000000003
20
77.233629758250515
42
-0.41421356237303258
10
-177.96875
20
76.733629758250515
0
LWPOLYLINE
5
171
100
AcDbEntity
8
0
100
AcDbPolyline
90
40
70
1
43
0.0
10
-158.30509767737379
20
89.602276318250546
42
-0.017462999999965825
10
-158.57846475737378
20
89.250830638250505
42
0.040523000000000975
10
-158.96997159737376
20
88.696592998250523
42
0.057107000000002406
10
-159.2163721573738
20
88.144699318250531
42
0.055275999999999596
10
-159.33651159737383
20
87.537641518250538
42
0.035055000000001814
10
-159.34723779737379
20
86.815878958250536
42
0.033271000000001646
10
-159.25972035737379
20
86.10053399825054
42
0.054924999999997622
10
-159.08114799737379
20
85.519132438250566
42
0.056556000000004818
10
-158.78474703737379
20
85.002327718250527
42
0.037771000000001984
10
-158.3400779173738
20
84.484172638250513
42
0.096456999999999779
10
-157.27680075737379
20
83.76646067825051
42
0.095094999999998986
10
-156.0164898373738
20
83.495447518250515
42
0.094653000000002263
10
-154.74050859737378
20
83.709953398250548
42
0.09453299999999859
10
-153.63278667737376
20
84.379695238250477
42
-0.017715000000030953
10
-153.20384415737377
20
84.738709198250532
42
-0.089560999999897126
10
-152.92848063737378
20
84.883051918250572
42
-0.17663099999994941
10
-152.71629231737376
20
84.873392998250551
42
-0.12132200000007615
10
-152.52069363737377
20
84.728789638250532
42
-0.10508599999999585
10
-152.44843683737381
20
84.591115318250473
42
-0.065720999999939536
10
-152.42245551737381
20
84.41023619825053
42
-0.036911000000014516
10
-152.43925647737379
20
84.141249718250535
42
-0.0084160000000716648
10
-152.50884183737381
20
83.689991758250557
42
-0.11452099999999038
10
-153.53325051737383
20
81.252630358250499
42
-0.11914699999999047
10
-155.51466363737379
20
79.557476518250525
42
-0.11924800000000359
10
-158.05014939737376
20
78.955394518250529
42
-0.11485000000000008
10
-160.61925243737377
20
79.564878358250525
42
-0.11869600000000442
10
-162.68062947737377
20
81.293817838250519
42
-0.12024400000001052
10
-163.71682623737382
20
83.763528358250525
42
-0.12056499999999229
10
-163.49772879737378
20
86.427683038250507
42
-0.11974799999999029
10
-162.07353063737384
20
88.697361238250522
42
-0.030212000000013318
10
-161.51435835737379
20
89.179583518250496
42
-0.031847000000008771
10
-160.91054019737382
20
89.58174467825053
42
-0.032289000000001684
10
-160.26873891737384
20
89.8991926782505
42
-0.033031999999987141
10
-159.59620383737382
20
90.128606398250511
42
-0.012008000000000529
10
-159.0618407173738
20
90.258629758250507
42
-0.044760000000022546
10
-158.71880295737381
20
90.301807438250535
42
-0.076736999999921507
10
-158.48341407737382
20
90.274039438250512
42
-0.12941599999995371
10
-158.31275955737382
20
90.174508558250494
42
-0.10769900000018647
10
-158.20268151737378
20
90.00308363825053
42
-0.16044400000001152
10
-158.1959515573738
20
89.826433318250523
42
-0.086730999999890382
0
LWPOLYLINE
5
172
100
AcDbEntity
8
0
100
AcDbPolyline
90
8
70
1
43
0.0
10
-26.887499999999996
20
35.083629758250503
42
-0.41421356237309503
10
-26.387499999999999
20
35.583629758250495
10
-25.387500000000003
20
35.583629758250503
42
-0.41421356237310025
10
-24.887499999999999
20
35.083629758250503
10
-24.887500000000003
20
22.083629758250503
42
-0.41421356237309764
10
-25.387500000000003
20
21.583629758250499
10
-26.387499999999999
20
21.583629758250492
42
-0.41421356237310281
10
-26.887500000000003
20
22.083629758250499
0
LWPOLYLINE
5
173
100
AcDbEntity
8
0
100
AcDbPolyline
90
8
70
1
43
0.0
10
-159.40000000000001
20
35.083629758250503
42
-0.41421356237312884
10
-158.90000000000001
20
35.583629758250495
10
-145.90000000000003
20
35.583629758250488
42
-0.41421356237309503
10
-145.40000000000001
20
35.083629758250503
10
-145.40000000000003
20
22.083629758250503
42
-0.41421356237306639
10
-145.90000000000001
20
21.583629758250499
10
-158.90000000000001
20
21.583629758250492
42
-0.41421356237309503
10
-159.40000000000001
20
22.083629758250499
0
LWPOLYLINE
5
174
100
AcDbEntity
8
0
100
AcDbPolyline
90
8
70
1
43
0.0
10
-36.869250000000001
20
75.183629758250518
42
-0.41421356237309503
10
-36.369250000000001
20
75.683629758250518
10
-30.369250000000001
20
75.683629758250518
42
-0.41421356237309503
10
-29.869250000000001
20
75.183629758250518
10
-29.869249999999997
20
61.183629758250504
42
-0.41421356237309764
10
-30.369250000000001
20
60.683629758250504
10
-36.369249999999994
20
60.683629758250518
42
-0.41421356237310025
10
-36.869250000000001
20
61.183629758250504
0
LWPOLYLINE
5
175
100
AcDbEntity
8
0
100
AcDbPolyline
90
8
70
1
43
0.0
10
-126.35000000000002
20
22.083629758250499
42
-0.41421356237306384
10
-126.85000000000001
20
21.583629758250499
10
-139.84999999999999
20
21.583629758250492
42
-0.41421356237309503
10
-140.34999999999999
20
22.083629758250499
10
-140.34999999999999
20
35.083629758250503
42
-0.41421356237312884
10
-139.84999999999999
20
35.583629758250495
10
-126.85000000000001
20
35.58362975825051
42
-0.41421356237305601
10
-126.34999999999999
20
35.083629758250503
0
LWPOLYLINE
5
176
100
AcDbEntity
8
0
100
AcDbPolyline
90
8
70
1
43
0.0
10
-221.31250000000009
20
54.133629758250521
42
-0.41421356237310025
10
-220.8125
20
54.633629758250521
10
-207.8125
20
54.633629758250528
42
-0.41421356237307422
10
-207.31250000000003
20
54.133629758250521
10
-207.31250000000003
20
41.133629758250493
42
-0.4142135623730378
10
-207.8125
20
40.6336297582505
10
-220.81249999999997
20
40.633629758250471
42
-0.41421356237314705
10
-221.3125
20
41.133629758250493
0
LWPOLYLINE
5
177
100
AcDbEntity
8
0
100
AcDbPolyline
90
8
70
1
43
0.0
10
-14.43125
20
60.183629758250504
42
-0.41421356237309631
10
-14.93125
20
59.683629758250511
10
-27.931249999999999
20
59.683629758250518
42
-0.41421356237310281
10
-28.431249999999999
20
60.183629758250504
10
-28.431250000000002
20
73.183629758250518
42
-0.41421356237309764
10
-27.931249999999999
20
73.683629758250518
10
-14.931249999999991
20
73.683629758250504
42
-0.41421356237309764
10
-14.431250000000002
20
73.183629758250518
0
LWPOLYLINE
5
178
100
AcDbEntity
8
0
100
AcDbPolyline
90
8
70
1
43
0.0
10
-83.987499999999997
20
73.68362975825049
42
-0.41421356237312623
10
-83.487500000000011
20
73.183629758250518
10
-83.487499999999983
20
60.183629758250504
42
-0.41421356237312623
10
-83.987499999999997
20
59.683629758250511
10
-96.987500000000011
20
59.683629758250504
42
-0.41421356237309503
10
-97.487500000000011
20
60.183629758250504
10
-97.487500000000011
20
73.183629758250518
42
-0.41421356237312623
10
-96.987500000000011
20
73.683629758250518
0
LWPOLYLINE
5
179
100
AcDbEntity
8
0
100
AcDbPolyline
90
8
70
1
43
0.0
10
-261.13125000000002
20
73.68362975825049
42
-0.41421356237315748
10
-260.63125000000002
20
73.183629758250518
10
-260.63125000000008
20
60.183629758250504
42
-0.4142135623730378
10
-261.13125000000002
20
59.683629758250511
10
-262.13125000000002
20
59.683629758250504
42
-0.41421356237307422
10
-262.63125000000002
20
60.183629758250504
10
-262.63125000000002
20
73.183629758250518
42
-0.4142135623730378
10
-262.13125000000002
20
73.683629758250518
0
LWPOLYLINE
5
180
100
AcDbEntity
8
0
100
AcDbPolyline
90
8
70
1
43
0.0
10
-195.40625000000006
20
79.233629758250501
42
-0.4142135623730378
10
-195.90625000000003
20
78.733629758250501
10
-208.90625
20
78.73362975825053
42
-0.41421356237315748
10
-209.40625
20
79.233629758250501
10
-209.40624999999997
20
92.23362975825053
42
-0.41421356237301177
10
-208.90625
20
92.733629758250515
10
-195.90625000000003
20
92.733629758250515
42
-0.41421356237304302
10
-195.40625000000003
20
92.23362975825053
0
LWPOLYLINE
5
181
100
AcDbEntity
8
0
100
AcDbPolyline
90
8
70
1
43
0.0
10
-135.875
20
3.0336297582505001
42
-0.41421356237306967
10
-136.375
20
2.533629758250497
10
-149.375
20
2.5336297582504912
42
-0.41421356237309404
10
-149.875
20
3.0336297582504956
10
-149.875
20
16.033629758250498
42
-0.41421356237312884
10
-149.375
20
16.533629758250498
10
-136.37500000000003
20
16.533629758250513
42
-0.41421356237305862
10
-135.875
20
16.033629758250498
0
LWPOLYLINE
5
182
100
AcDbEntity
8
0
100
AcDbPolyline
90
8
70
1
43
0.0
10
-3.6875
20
35.083629758250503
42
-0.4142135623730957
10
-3.1875000000000009
20
35.583629758250495
10
-2.1875
20
35.583629758250495
42
-0.41421356237309553
10
-1.6875000000000007
20
35.083629758250503
10
-1.6875000000000013
20
22.083629758250503
42
-0.41421356237309825
10
-2.1875000000000004
20
21.583629758250499
10
-3.1875000000000142
20
21.583629758250499
42
-0.41421356237309243
10
-3.6875
20
22.083629758250499
0
LWPOLYLINE
5
183
100
AcDbEntity
8
0
100
AcDbPolyline
90
8
70
1
43
0.0
10
-92.725000000000051
20
16.033629758250498
42
-0.41421356237311452
10
-92.224999999999994
20
16.533629758250498
10
-79.224999999999994
20
16.533629758250498
42
-0.41421356237309631
10
-78.724999999999994
20
16.033629758250498
10
-78.724999999999994
20
3.0336297582504912
42
-0.4142135623730947
10
-79.224999999999994
20
2.533629758250497
10
-92.224999999999994
20
2.5336297582504912
42
-0.41421356237309404
10
-92.725000000000009
20
3.0336297582504956
0
LWPOLYLINE
5
184
100
AcDbEntity
8
0
100
AcDbPolyline
90
8
70
1
43
0.0
10
-254.65000000000003
20
35.083629758250503
42
-0.41421356237314444
10
-254.15000000000003
20
35.583629758250503
10
-241.15000000000003
20
35.583629758250531
42
-0.41421356237310802
10
-240.65000000000001
20
35.083629758250503
10
-240.65000000000001
20
22.083629758250503
42
-0.41421356237301699
10
-241.15000000000003
20
21.583629758250499
10
-254.15000000000003
20
21.583629758250481
42
-0.41421356237314183
10
-254.65000000000003
20
22.083629758250499
0
LWPOLYLINE
5
185
100
AcDbEntity
8
0
100
AcDbPolyline
90
8
70
1
43
0.0
10
-87.962500000000006
20
54.133629758250521
42
-0.41421356237307944
10
-87.46250000000002
20
54.633629758250521
10
-74.462500000000006
20
54.633629758250521
42
-0.41421356237310542
10
-73.962500000000006
20
54.133629758250521
10
-73.962500000000006
20
41.133629758250493
42
-0.41421356237310542
10
-74.462500000000006
20
40.6336297582505
10
-87.46250000000002
20
40.633629758250507
42
-0.41421356237309503
10
-87.962500000000006
20
41.133629758250493
0
ENDSEC
0
SECTION
2
OBJECTS
0
DICTIONARY
5
C
100
AcDbDictionary
3
ACAD_GROUP
350
D
3
ACAD_MLINESTYLE
350
17
0
DICTIONARY
5
D
100
AcDbDictionary
0
DICTIONARY
5
1A
330
C
100
AcDbDictionary
0
DICTIONARY
5
17
100
AcDbDictionary
0
ENDSEC
0
EOF
