<?xml version="1.0" encoding="utf-8"?>
<!-- Generator: Adobe Illustrator 25.4.1, SVG Export Plug-In . SVG Version: 6.00 Build 0)  -->
<svg version="1.1" id="Layer_1" xmlns="http://www.w3.org/2000/svg" xmlns:xlink="http://www.w3.org/1999/xlink" x="0px" y="0px"
	 viewBox="0 0 1920 1080" style="enable-background:new 0 0 1920 1080;" xml:space="preserve">
<style type="text/css">
	.st0{fill:#E3013B;}
	.st1{fill:#E3013A;}
	.st2{fill:#F7F7FE;}
</style>
<g>
	<path class="st0" d="M1348.7,187c-11.3-26.7-22-52.8-32-79.5c33.8,4.5,63.3,31.4,72.4,65.6c6.8,25.5,5.6,51,0.5,76.5
		c-1.5,7.7-1.7,7.7-9.1,4.9c-24.3-9-47.2-20.6-66.3-38.6c-0.5-0.5-1-0.9-1.5-1.4c-6-5.2-9.1-10.6-8.1-19.6
		c2.1-18.2-3.7-35-15.9-48.8c-4.3-4.9-4.7-9.2-3.3-14.7c1.7-6.8,3.6-13.4,6.4-19.8c1.2-2.7-1.8-12.3-4.3-13.3c-2.5-0.9-5-1-7.1,1.6
		c-8.1,9.6-14.9,20-20.8,31c-1.6,2.9-0.2,4,2.2,5.3c17.3,8.8,28,22.7,32.7,41.7c7.6,31.3-14.7,66.2-46.3,72.1
		c-36.3,6.8-67.4-14.7-73.7-51c-5.3-30.3,18.4-63.2,48.8-68c5.8-0.9,11.6-1.4,17.4-0.9c2.9,0.2,4.1-0.8,5.3-3.2
		c6.4-13.2,14.5-25.4,24.1-36.5c1.7-2,2.2-3.8,1.8-6.3c-1.3-7.9,2.2-14.8,9-18.2c6.6-3.3,14.7-2,19.8,3.2c5.4,5.4,6.8,13.5,2.8,20.2
		c-1.8,3.1-1.5,5.4-0.3,8.3c11.9,28.8,25.2,57,40,84.5C1344.2,184.1,1344.8,186.7,1348.7,187z"/>
	<path class="st0" d="M760.2,276.9c-14.6,0-28.5,0.1-42.3,0c-5.6,0-9.8-2.6-12.6-7.5c-4.3-7.7-8.8-15.2-13.2-22.9
		c-4.5-7.9-11.1-11.9-20.4-11.7c-11.3,0.3-22.7,0.2-34,0c-3.4-0.1-4.6,0.8-4.5,4.4c0.2,11.3,0,22.7,0.2,34c0,3.1-0.8,3.9-3.9,3.9
		c-14-0.2-28-0.2-42,0c-3.1,0-3.9-0.8-3.9-3.9c0.1-51.5,0.1-102.9,0-154.4c0-3.2,1-3.9,4-3.9c36.8,0.1,73.7-0.2,110.5,0.2
		c24.8,0.2,45.3,15.9,53.6,39.8c8,23.2,1.1,48-17.8,63.5c-2.9,2.3-2.8,3.9-1.2,6.9C741.8,242.1,750.8,259.1,760.2,276.9z
		 M660.8,195.1c7.5,0,15,0,22.5,0c12.3-0.1,21.8-9.2,21.9-21.1c0.1-12.1-9.2-21.8-21.7-21.9c-15.5-0.2-30.9,0-46.4-0.1
		c-2.7,0-3.8,0.5-3.8,3.5c0.2,12,0.2,23.9,0,35.9c-0.1,3.3,1.2,3.8,4.1,3.7C645.1,195,652.9,195.1,660.8,195.1z"/>
	<path class="st1" d="M954.2,276.9c-14.2,0-27.5,0-40.8,0c-6.3,0-11.1-2.4-14.3-8.2c-4.1-7.4-8.5-14.7-12.7-22
		c-4.6-8.1-11.2-12.3-20.7-12c-11.3,0.3-22.7,0.2-34,0c-3.6-0.1-4.5,1-4.4,4.5c0.2,11.2,0,22.3,0.1,33.5c0,3-0.4,4.4-4,4.3
		c-13.8-0.2-27.7-0.2-41.5,0c-3.3,0-4.1-1-4.1-4.2c0.1-51.3,0.1-102.6,0-153.9c0-3.4,1.1-4.1,4.2-4.1c36.5,0.1,73-0.2,109.5,0.1
		c29.4,0.2,53.1,22.1,56.8,51.4c2.7,21.3-4.5,38.5-20.5,52.2c-2.6,2.2-2.6,3.7-1.1,6.5c8.5,15.6,16.8,31.3,25.1,47
		C952.5,273.5,953.2,274.9,954.2,276.9z M854.7,195.1c7.7,0,15.3,0,23,0c11.7-0.1,21.3-9.2,21.5-20.4c0.2-12.5-8.7-22.3-21-22.5
		c-15.8-0.3-31.6,0-47.4-0.1c-2.5,0-3.5,0.6-3.4,3.3c0.1,12.1,0.1,24.3,0,36.4c0,2.7,0.9,3.4,3.4,3.4
		C838.7,195,846.7,195.1,854.7,195.1z"/>
	<path class="st1" d="M383.2,196.5c0,25.2-0.1,50.3,0.1,75.5c0,3.7-0.6,5.2-4.8,5.1c-14.5-0.3-29-0.3-43.5,0c-4.2,0.1-4.8-1.4-4.8-5
		c0.2-16,0-32,0.2-48c0-3.5-0.5-4.9-4.5-4.9c-18.5,0.2-37,0.2-55.5,0c-3.2,0-4.3,0.8-4.2,4.2c0.2,16.3,0,32.6,0.2,49
		c0,3.7-0.9,4.7-4.7,4.7c-14.8-0.2-29.7-0.2-44.5,0c-3.1,0-3.9-0.8-3.9-3.9c0.1-51.5,0.1-102.9,0-154.4c0-3.1,0.9-3.9,3.9-3.9
		c15,0.1,30,0.2,45,0c3.3,0,4.2,1,4.1,4.2c-0.2,16.8,0,33.6-0.2,50.5c0,3.6,0.7,4.8,4.6,4.7c18.3-0.2,36.7-0.2,55,0
		c3.7,0,4.8-0.8,4.7-4.6c-0.2-16.7,0-33.3-0.2-50c-0.1-4.1,1.2-4.9,5-4.8c14.5,0.2,29,0.2,43.5,0c3.9-0.1,4.6,1.2,4.6,4.8
		C383.1,145.2,383.2,170.8,383.2,196.5z"/>
	<path class="st1" d="M406.3,195.7c0-25.3,0.1-50.6-0.1-76c0-3.9,1-4.9,4.9-4.9c47.8,0.1,95.6,0.1,143.5,0c3.6,0,4.9,0.6,4.8,4.6
		c-0.3,9.7-0.3,19.3,0,29c0.1,3.8-0.9,4.7-4.7,4.7c-30.2-0.2-60.3,0-90.5-0.2c-4.2,0-5.4,1.1-5.1,5.2c0.4,5,0.4,10,0,15
		c-0.3,4.4,0.8,5.9,5.6,5.8c18.7-0.3,37.3,0,56-0.2c3.8,0,4.8,0.9,4.7,4.7c-0.3,8.7-0.3,17.3,0,26c0.1,3.8-0.7,5.1-4.8,5
		c-18.8-0.2-37.7,0-56.5-0.2c-4,0-5.2,1-4.9,5c0.3,5,0.3,10,0,15c-0.2,3.7,0.8,4.8,4.7,4.7c28.3-0.2,56.7-0.1,85-0.1
		c3.3,0,6.7,0.2,10-0.1c3.3-0.3,4.7,0.6,4.6,4.3c-0.3,10-0.2,20,0,30c0.1,3.3-0.9,4.2-4.2,4.1c-18.5-0.2-37-0.1-55.5-0.1
		c-30.8,0-61.7-0.1-92.5,0.1c-3.9,0-5-0.9-4.9-4.9C406.4,246.6,406.3,221.1,406.3,195.7z"/>
	<path class="st1" d="M1142.9,115.1c0.4,1.9-0.9,2.9-1.6,4.1c-20.9,36.2-41.9,72.5-62.9,108.7c-2.9,5-4.6,10.1-4.4,16
		c0.3,9.5-0.1,19,0.1,28.5c0.1,3.3-0.6,4.6-4.3,4.6c-16.3-0.2-32.6-0.2-49,0c-3.2,0-4.3-0.8-4.2-4.1c0.2-9.2,0.1-18.3,0.1-27.5
		c0-6.3-1.3-12-4.6-17.5c-21-36-41.8-72.1-62.7-108.2c-0.8-1.4-2.1-2.6-1.9-4.8c16.6,0,33.3,0.4,49.8-0.2c7.2-0.3,11.2,2,14.7,8.4
		c9.6,17.7,19.9,34.9,30,52.3c2.8,4.8,3.7,4.8,6.4,0c11-19,22-37.9,32.9-56.9c1.2-2,2.1-3.7,5.2-3.7c18.2,0.2,36.3,0.1,54.5,0.1
		C1141.7,114.9,1142.3,115,1142.9,115.1z"/>
	<path class="st0" d="M153,114.9c11.7,0,23.3,0.2,35-0.1c3.9-0.1,4.7,1.1,4.6,4.8c-0.2,10.8-0.3,21.7,0,32.5
		c0.1,3.9-1.2,4.7-4.8,4.7c-18.7-0.1-37.3-0.4-56,0.3c-19.4,0.7-34.8,16.5-36.5,36.3c-1.5,18,11.6,36.1,29.6,40.6
		c3.2,0.8,6.5,1.2,9.9,1.2c17.7-0.1,35.3,0.1,53-0.1c4.1-0.1,4.9,1.2,4.8,5c-0.2,11.2-0.2,22.3,0,33.5c0,2.8-0.7,3.7-3.6,3.7
		c-22.3-0.1-44.7,0.4-67-0.2c-39-0.9-70.8-28.3-78.4-66.5c-8.2-41.5,20-84.4,61.1-93.3c3.6-0.8,7.2-1.8,10.8-1.8
		c12.5-0.2,25-0.1,37.5-0.1C153,115,153,115,153,114.9z"/>
	<path class="st0" d="M1301,215.6c9.2,9.9,19.3,18.2,30.4,25.3c3.2,2,6.3,4.5,9.9,5.8c5.7,2,7,6.3,7.8,11.5
		c4.7,30.6-16.3,61-46.6,67.6c-34.7,7.5-66.8-13.6-73.7-48.3c-0.2-1-0.4-2-0.5-2.9c-0.1-4.1-1.4-9,0.2-12.3c1.9-3.7,7.1-1,10.8-1.4
		c27.9-2.9,48.1-16.7,60-42.2C1299.8,217.7,1300.3,216.9,1301,215.6z"/>
	<path class="st2" d="M660.8,195.1c-7.8,0-15.6-0.1-23.5,0.1c-2.8,0.1-4.1-0.4-4.1-3.7c0.2-12,0.2-23.9,0-35.9c0-3,1.1-3.5,3.8-3.5
		c15.5,0.1,30.9-0.1,46.4,0.1c12.4,0.1,21.8,9.8,21.7,21.9c-0.1,11.9-9.6,21-21.9,21.1C675.7,195.1,668.3,195.1,660.8,195.1z"/>
	<path class="st2" d="M854.7,195.1c-8,0-16-0.1-24,0c-2.6,0-3.5-0.7-3.4-3.4c0.1-12.1,0.1-24.3,0-36.4c0-2.7,0.9-3.3,3.4-3.3
		c15.8,0.1,31.6-0.1,47.4,0.1c12.3,0.2,21.2,10,21,22.5c-0.2,11.2-9.8,20.4-21.5,20.4C870,195.1,862.3,195.1,854.7,195.1z"/>
</g>
</svg>
