<?xml version="1.0" encoding="utf-8"?>
<!-- Generator: Adobe Illustrator 25.4.1, SVG Export Plug-In . SVG Version: 6.00 Build 0)  -->
<svg version="1.1" id="Layer_1" xmlns="http://www.w3.org/2000/svg" xmlns:xlink="http://www.w3.org/1999/xlink" x="0px" y="0px"
	 viewBox="0 0 1920 1080" style="enable-background:new 0 0 1920 1080;" xml:space="preserve">
<style type="text/css">
	.st0{fill:#C82229;}
	.st1{fill:#05A96A;}
	.st2{fill:#FFFFFF;}
</style>
<g>
	<path class="st0" d="M396.3,410.5c-0.6-4.2-0.2-8.6-0.3-12.9c-0.1-2.1,1.2-2.6,2.9-3c12.3-3.1,12.9-3.9,12.9-16.4
		c0-7.7-0.1-15.5,0-23.2c0-2.6-0.8-3.5-3.4-3.5c-12.1,0.1-24.2,0.1-36.3,0c-2.7,0-3.3,1.1-3.3,3.5c0.1,9.3,0,18.7,0.1,28
		c0,6.6,2.2,9.3,8.6,11c1.1,0.3,2.3,0.5,3.5,0.6c2.8,0.2,3.7,1.8,3.4,4.4c-0.4,3.9,1.7,8.7-1,11.4c-2.2,2.2-6.8,0.7-10.3,0.7
		c-22.8,0.1-45.7,0-68.5,0c-5,0-5.2,0.8-5.2-5.1c0-0.4,0-0.8,0-1.2c0.2-2.9-1-6.3,0.6-8.7c1.6-2.5,5.1-1.3,7.7-2.1
		c5.7-1.8,8-4.2,8.2-10.2c0.2-7.7,0.1-15.5,0.1-23.2c0-20,0-40.1,0-60.1c0-1.4,0-2.8,0-4.2c-0.3-6.9-2.6-9.7-9.2-11.1
		c-7.3-1.6-7.3-1.6-7.3-8.7c0-8.3,0-8.3,8.1-8.3c23.4,0,46.8,0,70.3,0c1.4,0,2.8,0,4.2,0c1.7,0,2.5,0.8,2.4,2.6
		c0,3.6-0.1,7.1,0,10.7c0.1,2.1-1.1,2.8-2.8,3.1c-1.9,0.4-3.9,0.8-5.8,1.3c-4.4,1.2-6.8,4.1-6.9,8.6c-0.1,10.9-0.1,21.8-0.1,32.7
		c0,2,0.8,2.8,2.8,2.8c12.3,0,24.6,0,36.9,0c2.3,0,3.2-0.9,3.2-3.1c-0.1-10.5,0.1-21-0.1-31.6c-0.1-5.5-2.6-8.3-7.9-9.8
		c-1.7-0.5-3.5-0.7-5.2-1c-1.5-0.3-2.6-0.9-2.5-2.7c0.2-4.3-1.6-9.5,0.8-12.8c1.9-2.6,7.1-0.8,10.8-0.9c22.8-0.1,45.7,0,68.5,0
		c5.6,0,5.1-0.3,5.2,5.1c0,0.4,0,0.8,0,1.2c-0.2,3,1,6.3-0.5,8.8c-1.5,2.4-5.1,1.4-7.8,2.1c-5.5,1.5-7.9,4.4-8.3,10.2
		c-0.2,2.8,0,5.6,0,8.3c0,25.4,0,50.8,0,76.2c0,1.8-0.1,3.6,0.2,5.3c0.7,4,2.7,7,6.9,8.1c1.5,0.4,3.1,0.8,4.6,1
		c4.9,0.8,4.9,0.8,4.9,6c0,3.3,1.4,7.5-0.6,9.8c-2.1,2.3-6.4,0.8-9.7,0.8c-22.8,0.1-45.7,0.1-68.5,0
		C400.5,411,398.5,411.4,396.3,410.5z"/>
	<path class="st0" d="M978.6,346.3c10.3,2.1,15.9,8.7,20.6,16.6c4.2,7.2,8.9,14.1,13.9,20.7c4.2,5.5,9,10.1,16.2,11.2
		c2.4,0.4,3.3,1.7,3,4.1c-0.5,3.9,1.7,8.7-1,11.4c-2.2,2.2-6.8,0.6-10.4,0.6c-14.1,0.1-28.2-0.1-42.3,0.1c-3.2,0-5-0.9-6.7-3.6
		c-8.8-14.1-17.8-28.1-26.8-42.2c-5.2-8.1-14.7-11.9-23.8-9.4c-1.5,0.4-1.8,1.3-1.8,2.6c0,8.9-0.2,17.9,0.2,26.8
		c0.2,5.2,3.5,7.8,9.5,9c6.8,1.3,6.8,1.3,6.8,7.9c0,8.9,0,8.9-8.6,8.9c-23.8,0-47.6,0-71.5,0c-5.1,0-5.1,0-5.2-5.2
		c0-2.6,0-5.2-0.1-7.7c-0.1-2,0.8-2.8,2.8-2.9c2.6-0.1,5.2-0.3,7.7-0.9c5.6-1.3,8.1-4.4,8.1-10.1c0.1-29.2,0.1-58.3,0-87.5
		c0-6.7-2.2-9.1-8.5-11.1c-2.6-0.8-6.3,0.1-7.6-2.5c-1.1-2.2-0.4-5.4-0.5-8.2c0-0.4,0-0.8,0-1.2c0.1-6.3-0.7-5.8,5.7-5.8
		c34.1,0,68.3,0,102.4,0c7.8,0,15.4,0.9,22.8,3.5c14.1,5,22.1,14.9,23.6,29.8c0.8,7.9,0.1,15.9-2,23.6c-2.1,7.8-6.7,13.4-14.2,16.4
		C987.1,342.9,983.3,344.4,978.6,346.3z M923,312.9c0,6.1,0,12.3,0,18.4c0,0.2,0,0.4,0,0.6c-0.4,2.9,0.9,3.8,3.8,3.7
		c4.7-0.2,9.5,0,14.3-0.1c9.1-0.2,14-4.3,15.2-13.3c0.8-5.7,0.8-11.5,0-17.2c-1.3-9.1-7.4-14.3-16.6-14.4c-4.2-0.1-8.3,0.1-12.5-0.1
		c-2.9-0.1-4.3,0.6-4.1,3.9C923.1,300.6,923,306.8,923,312.9z"/>
	<path class="st0" d="M792.3,346.1c1.4,0.6,2.5,1.1,3.6,1.5c5.6,2,9.9,5.6,13.1,10.6c5.3,8.2,10.6,16.3,16.1,24.3
		c4.3,6.2,9.5,11.3,17.4,12.4c2.2,0.3,2.9,1.6,2.8,3.7c-0.1,3-0.2,6,0,8.9c0.1,2.5-0.8,3.6-3.4,3.5c-5.2-0.1-10.3,0-15.5,0
		c-11.5,0-23-0.1-34.5,0.1c-3.4,0.1-5.3-1-7.2-3.9c-8.6-13.8-17.4-27.5-26.2-41.2c-5.7-9-13.7-12.3-24-10.2c-1.4,0.3-2.1,1-2.1,2.3
		c0,9.1-0.2,18.3,0.2,27.4c0.2,4.9,3.6,7.5,9.2,8.7c7.1,1.5,7.1,1.5,7.1,8.8c0,8,0,8-7.7,8c-23.6,0-47.2,0-70.9,0
		c-1.4,0-2.8,0-4.2,0c-1.7,0.1-2.6-0.7-2.5-2.4c0-3.6,0.1-7.1,0-10.7c0-1.7,0.7-2.5,2.5-2.6c2-0.1,4-0.1,5.9-0.5
		c7.6-1.3,10.2-4.3,10.2-12c0-19.2,0-38.5,0-57.7c0-9.1,0-18.3,0-27.4c0-7.8-2.3-10.5-10-12.4c-6.7-1.6-6.7-1.6-6.7-8.8
		c0-8.5,0-8.5,8.4-8.5c33,0,65.9,0,98.9,0c8,0,15.8,0.8,23.4,3.4c14.4,5,22.5,15.1,23.9,30.2c0.8,7.9,0.1,15.9-2.1,23.6
		c-2.1,7.5-6.5,13-13.9,16C800.4,342.8,796.5,344.3,792.3,346.1z M736,312.8c0,6.3,0,12.7,0,19c0,0.2,0,0.4,0,0.6
		c-0.2,2.2,0.7,3.2,3.1,3.2c5.5-0.1,11.1,0.2,16.6-0.1c7-0.4,10.9-3.5,12.7-10.4c1.9-7.2,1.8-14.6,0.4-21.8
		c-1.7-8.3-7.5-12.6-16.2-12.7c-4-0.1-7.9,0-11.9,0c-4.7,0-4.7,0.1-4.7,5C735.9,301.4,735.9,307.1,736,312.8z"/>
	<path class="st0" d="M648.2,411c-2.5,0-4.5,0-6.5,0c-45.6,0-91.3,0-136.9,0c-0.8,0-1.6,0-2.4,0c-4.4-0.1-4.4-0.1-4.5-4.7
		c0-0.8,0-1.6,0-2.4c0.2-2.7-1-5.9,0.6-8.1c1.5-2.2,4.8-1.2,7.3-1.8c6.8-1.5,9.4-4.5,9.4-11.6c0.1-28.6,0.1-57.1,0-85.7
		c0-7.6-2.8-10.6-10.4-11.9c-6.9-1.2-6.9-1.2-6.9-7.9c0-9,0-9,9.1-9c44.8,0,89.7,0,134.5,0c7.4,0,6.6-1,6.6,6.7c0,14.7,0,29.4,0,44
		c0,5-0.1,5.1-4.7,5.1c-4.4,0-9.5,1.2-12.8-0.7c-3.4-1.9-1.9-7.6-2.9-11.6c-1.8-6.4-4.2-12.3-8.8-17.3c-3.8-4.1-8.5-6.8-14-7
		c-10.7-0.4-21.4-0.2-32.1-0.4c-2.4,0-3,1.2-3,3.3c0,12.1,0,24.2,0,36.3c0,2.4,0.6,3.7,3.4,3.6c3.4-0.2,6.8,0.1,10.1-0.1
		c6.1-0.3,8.9-2.7,10.3-8.7c0.5-2.1,0.8-4.3,0.8-6.5c0.1-3.1,1.5-4.1,4.5-3.8c3.7,0.3,8.4-1.4,11,0.7c2.7,2.3,0.9,7.1,0.9,10.8
		c0.1,14.1,0.1,28.2,0,42.3c0,4.5-0.1,4.6-4.6,4.6c-3.6,0-7.7,1-10.5-0.6c-2.9-1.6-1.4-6.2-2.1-9.4c-1.4-6.4-4-8.8-10.6-9
		c-3.8-0.1-7.5,0.1-11.3,0c-2,0-2.8,0.7-2.8,2.8c0.1,11.7,0,23.4,0,35.1c0,1.6,0.3,2.8,2.2,2.7c12.5-0.4,25,1.1,37.4-1
		c10.3-1.8,16.6-8.1,18.7-18.2c1-4.8,1.5-9.8,2.1-14.7c0.3-2.4,1.2-3.5,3.7-3.4c3.6,0.2,7.1,0,10.7,0c4.2,0.1,4.3,0.1,4.3,4.3
		c0.1,12.3,0,24.6,0,36.9C648.2,400,648.2,405.3,648.2,411z"/>
	<path class="st1" d="M1290.2,249.7c2.5,0.9,2.4-1.5,2.9-2.6c2.6-6.2,4.9-12.5,7.4-18.8c5.1-12.7,10.9-25.1,17.6-37
		c1.5-2.6,2-5.1,1.5-7.9c-0.6-3.7-1-7.5-1.6-11.2c-1-6.9,3.1-13,9.9-13.6c11.7-1,21.9,2.6,30.4,10.9c2.1,2,3.3,4.6,3.6,7.4
		c0.5,4,2.9,6.2,5.8,8.5c16.7,13.3,32,27.9,45.2,44.7c4.7,5.9,9.1,12,12.9,18.5c2.2,3.8,2.1,4.2-2,6c-1.5,0.6-3,1-4.5,1.5
		c-1.8,0.5-2.9-0.2-3.8-1.9c-9.9-18.5-24.2-33.3-39.1-47.6c-3.9-3.7-8-7.1-12.1-10.6c-0.8-0.7-1.6-1.8-3.5-1.4
		c-2.1,5.9-3.8,12.1-5.3,18.5c-0.7,2.7,0.4,4.6,2.7,5.9c3.1,1.7,6.2,3.5,9.3,5.3c6.2,3.5,12.4,7.1,18.3,11.1
		c16.7,11.1,27.9,26.1,33.9,45.3c5.3,16.9,7.5,34,6.9,51.6c-0.2,6.9-0.8,13.9-1.3,22.2c-2.1-8.3-3.8-15.2-5.6-22.1
		c-4-15-8.6-29.7-15.6-43.6c-4.3-8.6-9.3-16.6-16.2-23.4c-4-3.9-8.4-7.3-13.6-9.5c-1.7-0.8-3.5-2.1-5.5-0.7c-0.1,1,0.6,1.4,1.3,1.9
		c10.4,7.1,18,16.7,24.2,27.5c10.6,18.2,16.9,38,21.6,58.3c1.9,8.1,3.4,16.3,4.9,24.5c2,11.3,5.7,21.9,12.4,31.3
		c0.5,0.7,0.9,1.6,1.8,3c-7.4-2-13.7-4.7-20-7.5c-25.3-11.3-47.8-26.5-66.9-46.7c-1.1-1.2-2.1-2.4-3.2-3.5c-1.2-1.2-1-2.3-0.1-3.7
		c1.9-2.8,3.8-5.6,5.4-8.5c9-16.7,12.1-34.3,7.6-52.9c-3.2-13.5-11.2-23.4-23.5-29.9c-4.7-2.5-4.7-2.4-2.9-7.5
		c2.6-7.1,6-13.8,10.7-19.8c1-1.2,2.1-2.3,2.4-4c1.5-8.8,3.2-17.5,4.7-26.3c0.3-2.1,1.4-4.5-0.3-6.3c-2.2-2.3-5.1-3.8-7.9-5.1
		c-1.1-0.5-1.8,0.4-2.6,1c-2.8,2-4.7,4.6-5.9,8c-5.6,16.1-8,32.7-8.3,49.7c-0.1,7.1-0.1,6.9-7,6.8c-3.3,0-3.5-1.4-3.3-4
		c0.6-6.9,1-13.8,1.5-20.8c0.1-2.1,0.8-4.2,0.2-6.4c-1.1,0.4-1.5,1.4-1.8,2.3c-4.4,10.2-8,20.7-10.8,31.5c-1.3,5.1-2,10.1,1.3,14.8
		c-3,2.9-6.4,2.7-9.7,2.1c-5.2-0.9-6.6-3.4-4.9-8.4c0.6-1.7,1.1-3.4,1.6-5.1C1291.6,250.2,1291.2,249.6,1290.2,249.7
		C1290.2,249.7,1290.2,249.7,1290.2,249.7z"/>
	<path class="st0" d="M284.1,295.6c0,7.9,0,15.9,0,23.8c0,4.1-0.1,4.2-4.4,4.3c-5.8,0.1-11.5-0.1-17.3,0.1c-2.6,0.1-4-0.5-4.3-3.4
		c-0.4-3.5-1.5-6.9-3-10.2c-3.8-8.8-10.5-14.4-19.7-16.5c-7.4-1.7-15-1.6-22.4,0.2c-10.9,2.6-18.5,9.3-22.3,19.6
		c-6.4,17.4-7.4,35.4-1.5,53.1c7.3,22,33.3,30.9,53.1,18.8c7.7-4.7,12-11.8,14.5-20.3c0.4-1.3,0.8-2.7,0.9-4.1
		c0.2-2.8,1.6-3.5,4.3-3.4c6.3,0.2,12.7,0.2,19,0c2.7-0.1,3.4,1.1,3.2,3.6c-1.5,17.8-8.9,32.3-23.6,42.7
		c-11.2,7.9-23.8,11.7-37.2,12.7c-18.6,1.4-36.8-0.9-54.1-8.6c-29.8-13.3-43.3-40.7-41.5-70.6c1.5-25.9,12.9-46.8,34.9-61.1
		c14.8-9.6,31.4-12.9,48.8-12.2c11.2,0.4,22,2.8,32.3,7.3c2,0.9,4,1.7,6.1,2.4c7.8,2.9,9.1,2.6,14.6-4c1.2-1.4,2.4-1.8,4.1-1.8
		c4,0.1,7.9,0.2,11.9,0c3-0.1,3.7,1.1,3.7,3.9C284,279.7,284.1,287.7,284.1,295.6z"/>
	<path class="st0" d="M1056.3,410.5c-0.8-4.2-0.2-8.6-0.4-12.9c-0.1-2.2,1.3-2.6,3-2.9c2.5-0.4,5.1-0.4,7.6-1.2
		c5.1-1.7,6.6-3.6,6.7-9.1c0.1-7.7,0-15.5,0-23.2c0-2.3-0.6-4.2-1.8-6.1c-11.6-18.9-23.2-37.9-34.8-56.8c-4.7-7.7-11-12.8-20.3-13.7
		c-5.1-0.5-5.1-0.9-5-5.9c0.1-3.3-1.4-7.5,0.7-9.8c2.2-2.4,6.4-0.9,9.7-0.9c25.2-0.1,50.4,0,75.6,0c1.4,0,2.8,0,4.2,0
		c1.6,0,2.7,0.4,2.7,2.3c0,3.8,0,7.5,0,11.3c0,1.5-0.7,2.1-2.1,2.3c-2.1,0.4-4.3,0.7-6.4,1.3c-3.2,1-3.9,2.9-2.7,6
		c0.1,0.2,0.1,0.4,0.3,0.5c7.8,12.1,15.6,24.2,23.4,36.2c0.9-0.4,1.4-0.5,1.6-0.7c7.6-11.6,15.2-23.2,22.6-35c2.5-4,1.3-6.2-3.2-7.4
		c-2.3-0.6-5.5-0.3-6.7-1.7c-1.8-2-0.7-5.3-0.7-8.1c0-8.3-1.1-7.1,7.3-7.1c16.3-0.1,32.5,0,48.8,0c4.8,0,4.8,0.1,4.9,4.9
		c0,2,0,4,0,6c-0.1,4.9,0,5.3-5.2,5.8c-9.1,0.9-15.3,5.9-20,13.3c-12,18.9-24.1,37.8-36.3,56.6c-1.3,2.1-2.1,4.1-2.1,6.6
		c0.1,7.3,0,14.7,0.1,22c0.1,6.4,2,8.9,8.2,10.6c0.6,0.2,1.1,0.3,1.7,0.4c2.5,0.5,5.7-0.4,7.4,1.6c2,2.3,0.5,5.7,0.8,8.6
		c0.1,1.2-0.1,2.4,0,3.6c0.2,2.3-0.7,3.3-3,3.1c-1.2-0.1-2.4,0-3.6,0c-25.6,0-51.2,0-76.8,0C1060.4,411,1058.4,411.3,1056.3,410.5z"
		/>
	<path class="st0" d="M1290.2,249.7C1290.2,249.7,1290.2,249.7,1290.2,249.7c-0.5,0.2-1.1,0.5-1.6,0.7c-3.6,1.9-5.9,4.8-5.5,9.1
		c0.5,4.1,3.3,6.7,7,8.2c6.9,2.9,14.8,0.9,20.5-5.1c-1.3-2.4-3.6-4.2-4.6-6.9c-1.4-3.5-1-4.6,2.6-5.7c6-1.9,11.9-0.9,17.5,1.2
		c15,5.6,23.5,16.8,25.6,32.3c4.4,32-8.2,56.4-34.9,73.9c-10.3,6.8-21.4,9-33.5,5.9c-7.9-2-15.8-3.9-23.6-6
		c-8.4-2.2-15.1-7-19.7-14.3c-13.8-21.8-17.8-45.1-9.6-69.9c3.3-10,9-18.4,17.8-24.6C1261.7,238.8,1279.6,241.1,1290.2,249.7z"/>
	<path class="st0" d="M1339.6,347.8c0.9,1.5,1.4,2.7,2.2,3.5c14.1,15.3,30.4,27.8,48.6,37.8c3.6,2,4.6,4.1,4.4,7.9
		c-1.1,25.3-13,43.9-34.8,56.5c-8.7,5-18.2,4.9-27.8,3.8c-7.1-0.8-14.2-1.5-21.3-2.2c-9.6-1-17.5-5-23-13.1
		c-13.2-19.5-19.8-40.4-14.8-64.1c0.1-0.6,0.2-1.2,0.4-1.7c1.8-6.8,1.8-6.8,8.6-5.4c16.1,3.4,30.7,0.3,43.6-10.1
		C1330.2,357.2,1334.3,353.2,1339.6,347.8z"/>
	<path class="st0" d="M1434.1,331.7c0.9-18.4-0.6-36.5-7.2-53.9c-1.8-4.8-3.8-9.6-6.3-14.1c-1.6-2.8-0.8-3.7,2-4.4
		c4.5-1.1,8.3-3.5,12.3-5.7c12.7-7,25.7-7.5,38.6-0.5c11.5,6.3,18.8,16.3,23.3,28.3c5.2,14,6.6,28.6,4,43.3
		c-4.8,27.5-30.1,48.7-58,48.7c-6.2,0-6.2-0.1-7.8-6.3c-1.9-7.6-2.6-15.2-1.9-23C1433.6,340,1433.8,335.8,1434.1,331.7z"/>
	<path class="st2" d="M923,312.9c0-6.1,0.2-12.3-0.1-18.4c-0.1-3.3,1.2-4.1,4.1-3.9c4.1,0.2,8.3,0,12.5,0.1
		c9.3,0.1,15.4,5.3,16.6,14.4c0.8,5.7,0.8,11.5,0,17.2c-1.2,9-6.1,13.2-15.2,13.3c-4.7,0.1-9.5-0.1-14.3,0.1
		c-2.8,0.1-4.1-0.9-3.8-3.7c0-0.2,0-0.4,0-0.6C923,325.2,923,319,923,312.9z"/>
	<path class="st2" d="M736,312.8c0-5.7,0-11.5,0-17.2c0-4.9,0.1-4.9,4.7-5c4,0,7.9-0.1,11.9,0c8.7,0.1,14.5,4.4,16.2,12.7
		c1.5,7.2,1.5,14.6-0.4,21.8c-1.8,6.9-5.7,10-12.7,10.4c-5.5,0.3-11.1,0-16.6,0.1c-2.3,0-3.2-1-3.1-3.2c0-0.2,0-0.4,0-0.6
		C736,325.5,736,319.2,736,312.8z"/>
</g>
</svg>
