<?xml version="1.0" encoding="utf-8"?>
<!-- Generator: Adobe Illustrator 25.4.1, SVG Export Plug-In . SVG Version: 6.00 Build 0)  -->
<svg version="1.1" id="Layer_1" xmlns="http://www.w3.org/2000/svg" xmlns:xlink="http://www.w3.org/1999/xlink" x="0px" y="0px"
	 viewBox="0 0 1920 1080" style="enable-background:new 0 0 1920 1080;" xml:space="preserve">
<style type="text/css">
	.st0{fill:#05A96A;}
	.st1{fill:#C82229;}
</style>
<g>
	<path class="st0" d="M215,252.5c5.9,2.1,5.6-3.4,6.7-6.1c6.1-14.7,11.6-29.6,17.5-44.3c12-29.9,25.6-59.2,41.5-87.2
		c3.4-6,4.7-12,3.6-18.7c-1.4-8.8-2.5-17.6-3.7-26.4c-2.4-16.4,7.3-30.6,23.3-32c27.5-2.4,51.6,6.2,71.5,25.6
		c4.9,4.8,7.7,10.9,8.5,17.4c1.2,9.3,6.8,14.6,13.6,20c39.3,31.2,75.3,65.8,106.6,105.2c11.1,13.9,21.4,28.3,30.4,43.7
		c5.2,8.9,4.9,10-4.8,14.1c-3.4,1.5-7.1,2.5-10.6,3.5c-4.2,1.2-6.8-0.4-8.9-4.4c-23.2-43.5-57-78.5-92.2-112.2
		c-9.1-8.7-18.9-16.7-28.5-24.9c-2-1.7-3.8-4.3-8.1-3.2c-4.9,13.9-9,28.6-12.6,43.5c-1.5,6.4,0.9,10.8,6.5,14
		c7.3,4.1,14.6,8.4,21.9,12.4c14.7,8.2,29.1,16.8,43.2,26.1c39.3,26.1,65.7,61.5,79.9,106.6c12.5,39.7,17.8,80.2,16.3,121.6
		c-0.6,16.3-1.8,32.6-3,52.4c-4.9-19.5-9-35.7-13.2-52c-9.3-35.3-20.3-70-36.7-102.7c-10.1-20.2-22-39.1-38.2-55.1
		c-9.4-9.3-19.8-17.1-32-22.4c-4.1-1.8-8.2-4.9-13-1.6c-0.2,2.4,1.5,3.4,3,4.4c24.5,16.7,42.3,39.4,57,64.7
		c24.9,42.9,39.7,89.5,51,137.4c4.5,19.1,8.1,38.4,11.6,57.7c4.8,26.5,13.4,51.5,29.2,73.6c1.2,1.7,2.2,3.7,4.1,7
		c-17.3-4.6-32.3-11.1-47.1-17.7c-59.6-26.6-112.7-62.4-157.6-110.1c-2.6-2.7-5-5.6-7.6-8.3c-2.8-2.9-2.4-5.5-0.3-8.7
		c4.4-6.6,9-13.1,12.7-20.1c21.2-39.3,28.4-80.8,18-124.7c-7.6-31.8-26.4-55.2-55.3-70.4c-11-5.8-11.1-5.7-6.7-17.7
		c6.1-16.8,14.2-32.5,25.3-46.6c2.3-2.9,5-5.3,5.7-9.4c3.6-20.7,7.6-41.3,11.1-62c0.8-4.8,3.3-10.7-0.8-14.8
		c-5.2-5.3-11.9-8.9-18.7-12.1c-2.6-1.2-4.3,1-6.1,2.2c-6.7,4.7-11,10.9-13.8,18.8c-13.1,37.9-18.7,77-19.6,117
		c-0.3,16.7-0.2,16.2-16.5,16.1c-7.8,0-8.3-3.4-7.8-9.4c1.3-16.3,2.4-32.6,3.5-48.9c0.3-5,2-9.9,0.4-15c-2.7,0.9-3.4,3.2-4.3,5.3
		c-10.5,24-19,48.7-25.4,74.1c-3.1,12-4.8,23.8,3.1,34.9c-7,6.8-15,6.4-22.9,5c-12.2-2.1-15.4-8-11.6-19.7c1.3-4,2.7-8,3.8-12
		C218.4,253.7,217.5,252.3,215,252.5C215.1,252.4,215,252.5,215,252.5z"/>
	<path class="st1" d="M215,252.5C215,252.5,215.1,252.4,215,252.5c-1.2,0.5-2.5,1.1-3.8,1.7c-8.5,4.6-14,11.4-12.9,21.3
		c1.1,9.7,7.7,15.7,16.4,19.3c16.3,6.8,34.8,2.1,48.2-12c-3.1-5.6-8.4-9.9-10.8-16.1c-3.3-8.3-2.5-10.7,6.1-13.5
		c14-4.5,27.9-2.2,41.2,2.7c35.3,13.1,55.3,39.7,60.3,76c10.3,75.4-19.2,132.8-82.2,174.1c-24.3,15.9-50.4,21.2-78.8,14
		c-18.5-4.7-37.1-9.2-55.6-14.1c-19.8-5.3-35.6-16.4-46.5-33.7C64.2,420.8,54.8,366,74,307.5c7.8-23.6,21.3-43.4,41.9-58
		C148,226.8,190.2,232.2,215,252.5z"/>
	<path class="st1" d="M331.4,483.6c2.2,3.6,3.3,6.3,5.2,8.3c33.2,36.1,71.6,65.5,114.6,89c8.5,4.6,10.8,9.6,10.4,18.6
		c-2.6,59.7-30.7,103.5-82,133c-20.5,11.8-42.9,11.5-65.4,9c-16.7-1.8-33.4-3.5-50.2-5.3c-22.5-2.4-41.2-11.7-54.1-30.8
		c-31.1-45.8-46.7-95.3-34.9-151c0.3-1.4,0.5-2.8,0.9-4.1c4.3-16,4.3-16,20.3-12.7c37.9,8,72.2,0.7,102.7-23.7
		C309.4,505.7,319.1,496.3,331.4,483.6z"/>
	<path class="st1" d="M554.1,445.7c2.1-43.3-1.3-85.9-16.9-126.9c-4.3-11.4-8.9-22.6-14.9-33.2c-3.8-6.6-1.8-8.8,4.8-10.4
		c10.5-2.6,19.6-8.2,29.1-13.4c29.9-16.6,60.6-17.7,90.9-1.1c27,14.8,44.3,38.3,54.9,66.8c12.3,33.1,15.5,67.3,9.5,102
		c-11.3,64.9-71,114.8-136.5,114.6c-14.5,0-14.7-0.2-18.4-14.9c-4.5-17.8-6-35.9-4.5-54.2C552.9,465.3,553.4,455.5,554.1,445.7z"/>
</g>
</svg>
