<?xml version="1.0" encoding="utf-8"?>
<!-- Generator: Adobe Illustrator 25.4.1, SVG Export Plug-In . SVG Version: 6.00 Build 0)  -->
<svg version="1.1" id="Layer_1" xmlns="http://www.w3.org/2000/svg" xmlns:xlink="http://www.w3.org/1999/xlink" x="0px" y="0px"
	 viewBox="0 0 1920 1080" style="enable-background:new 0 0 1920 1080;" xml:space="preserve">
<style type="text/css">
	.st0{fill:#D71E3F;}
</style>
<g>
	<g>
		<path class="st0" d="M211.8,454.1l-0.3,2.9c-2.8,35.8,10.4,70.9,36,96c25.6,25.1,61.2,37,96.9,33.5c35.7-3.6,67.7-22.3,87.9-52
			c20.2-29.6,26.1-66.7,16.3-101.2l-1.4-0.7c-9.3-4.9-18.4-10.1-27.2-15.7c-8.6-5.4-17-11.2-25.1-17.4c-5.9-4.5-11.7-9.3-17.3-14.2
			c-7.4-6.6-14.5-13.6-21.2-21c-17.8,47.1-59.6,81.1-109.4,88.9C235.1,454.9,223.6,455.2,211.8,454.1"/>
		<path class="st0" d="M387.8,147.8c21,55.3,41.1,105.2,64.3,159.6c-3.3,0.9-6.8-0.6-8.5-3.6c-27.6-51.4-51.6-100.7-74.1-154.5
			c-2.5-5.7-4.8-11.4-7.1-17.2c-1.1-2.9-2.3-5.8-3.5-8.7l-0.9-2.2v-2.9l0.6-1l0.7-0.8c1.9-2.5,3.3-5.1,4.4-7.9
			c2.3-5.7,2.9-11.9,1.9-18c-2.1-12.2-10.5-22.3-22.2-26.4c-11.6-4.1-24.6-1.6-33.8,6.5c-9.2,8.2-13.3,20.7-10.7,32.8l0.6,2.3
			l0.2,0.6l0.2,0.7l-0.8,3.2l-0.9,1l-3.4,3.9c-2.2,2.6-4.4,5.3-6.6,8c-4.4,5.4-8.5,11-12.5,16.6c-8.1,11.4-15.5,23.2-22.2,35.5
			c-1.6,3.1-3.4,6.2-4.9,9.3l-2.3,4.7l-1.2,2.3l-0.3,0.6l-0.7,1.1l-3.1,1.3l-1.4-0.2c-6.4-0.7-12.8-1-19.3-0.7
			c-13.4,0.5-26.7,3.3-39.1,8.1c-27.5,10.8-50,31.1-63.6,57.2c-13,25.1-16.8,54-10.7,81.7c6.4,29.3,23.5,55.2,47.9,72.6
			c22.6,16.2,50,24,77.8,22.3c30.1-1.9,58.4-14.8,79.4-36.5c19.3-19.7,31.2-45.5,33.7-72.9c2.7-28.5-4.7-57-21.1-80.5
			c-7.9-11.4-17.8-21.3-29-29.4c-5.3-3.8-10.9-7.2-16.8-10l-4.2-2l-1.4-0.8l-1.3-3.2l0.4-1.5l0.6-1.2l1.1-2.3c1.6-3,3.2-6,4.9-9.1
			c6.6-12,14.1-23.6,22.2-34.7c4-5.5,8.2-10.8,12.6-16.1l3.3-3.9l0.8-0.9l0.4-0.5l0.3-0.4l3.3-1.1l1,0.3l0.6,0.2l1.3,0.3l2.6,0.4
			l1.3,0.2l0.6,0.1l2.8,2l0.7,1.4l0.5,1.3c1.6,3.4,3.1,6.9,4.7,10.3l1.2,2.6l0.7,1.3l0.7,2l-0.2,1.8l-0.6,1.3l-1,2.3l-1.9,4.5
			c-2.4,5.9-4.5,11.9-6.5,18c-3.6,11.8-6.1,23.7-7.5,36c33.8,33.2,48.5,81.2,39.1,127.6C404.2,394.4,470,427.1,530,447.3
			c13.4-57.9,18.1-126.7-3.7-185.1c-11.2-29.8-28.8-55.4-53.9-75.4C447.5,167,418.2,155.1,387.8,147.8"/>
	</g>
</g>
</svg>
